<!DOCTYPE svg PUBLIC "-//W3C//DTD SVG 1.1//EN" "http://www.w3.org/Graphics/SVG/1.1/DTD/svg11.dtd">

<!-- Uploaded to: SVG Repo, www.svgrepo.com, Transformed by: SVG Repo Mixer Tools -->
<svg fill="#ec0909" width="800px" height="800px" viewBox="0 0 32 32" version="1.1"
    xmlns="http://www.w3.org/2000/svg">

    <g id="SVGRepo_bgCarrier" stroke-width="0"/>

    <g id="SVGRepo_tracerCarrier" stroke-linecap="round" stroke-linejoin="round"/>

    <g id="SVGRepo_iconCarrier">
        <title>battledotnet</title>
        <path d="M14.004 23.702c4.058-2.396 7.307-5.776 9.479-9.819l0.066-0.134c-3.578-2.075-7.873-3.3-12.454-3.3-0.329 0-0.657 0.006-0.984 0.019l0.047-0.001c0.027 4.911 1.458 9.483 3.912 13.341l-0.061-0.102zM25.998 4.886c0-0.074 0-0.234 0.079-0.234 0.112 0 0.209 0.237 0.245 0.337 0.219 0.843 0.345 1.812 0.345 2.809 0 1.501-0.285 2.936-0.803 4.252l0.027-0.079c3.444 1.841 5.421 4.226 5.064 6.458-0.475 2.933-4.779 4.657-10.574 4.455q1.018-1.097 1.937-2.281c2.232-0.434 3.831-1.316 4.249-2.729 0.307-1.028-0.4-2.169-1.744-3.242-2.223 4.53-5.375 8.296-9.23 11.171l-0.081 0.057c1.29 1.828 2.95 3.308 4.879 4.357l0.075 0.037c0.065 0.031 0.205 0.112 0.157 0.185-0.055 0.097-0.315 0.062-0.412 0.043-2.366-0.693-4.357-2.046-5.823-3.844l-0.017-0.021c-3.314 2.062-6.372 2.582-8.125 1.156-2.302-1.874-1.645-6.471 1.421-11.379 0.241 0.789 0.631 1.907 1.007 2.815-0.364 0.673-0.577 1.474-0.577 2.324 0 1.014 0.304 1.958 0.826 2.744l-0.011-0.018c0.737 0.779 2.079 0.737 3.68 0.11-2.647-3.872-4.449-8.523-5.035-13.546l-0.014-0.143c-2.351 0.211-4.489 0.962-6.341 2.128l0.059-0.035c-0.060 0.041-0.2 0.122-0.244 0.050-0.055-0.097 0.102-0.3 0.171-0.38 1.662-1.607 3.807-2.723 6.197-3.11l0.067-0.009c-0.128-3.904 0.947-6.811 3.062-7.614 2.774-1.057 6.423 1.809 9.142 6.926q-1.458-0.334-2.942-0.536c-1.491-1.715-3.057-2.662-4.491-2.317-1.042 0.25-1.676 1.432-1.933 3.127 0.667-0.052 1.444-0.082 2.228-0.082 4.397 0 8.575 0.933 12.349 2.613l-0.193-0.077c0.843-1.76 1.335-3.825 1.335-6.005 0-0.167-0.003-0.333-0.009-0.498l0.001 0.024z"/>
    </g>

</svg>