<?xml version="1.0" encoding="UTF-8"?>
<!DOCTYPE svg PUBLIC "-//W3C//DTD SVG 1.1//EN" "http://www.w3.org/Graphics/SVG/1.1/DTD/svg11.dtd">
<!-- Creator: CorelDRAW -->
<svg xmlns="http://www.w3.org/2000/svg" xml:space="preserve" width="100%" height="100%" version="1.1" shape-rendering="geometricPrecision" text-rendering="geometricPrecision" image-rendering="optimizeQuality" fill-rule="evenodd" clip-rule="evenodd"
viewBox="0 0 3788.4 989.83"
 xmlns:xlink="http://www.w3.org/1999/xlink"
 xmlns:xodm="http://www.corel.com/coreldraw/odm/2003">
 <g id="Слой_x0020_1">
  <metadata id="CorelCorpID_0Corel-Layer"/>
  <g>
   <path fill="#FABE0D" fill-rule="nonzero" d="M3009.28 982.45l-2829.22 7.32 -0.12 -49.88 2829.22 -7.32 19.79 40.27 -19.67 9.61zm19.67 -9.61l-7.48 9.58 -12.19 0.03 19.67 -9.61zm727.94 -932.48l-727.94 932.48 -39.46 -30.66 727.94 -932.48 19.68 -9.61 19.78 40.27zm-19.78 -40.27l51.29 -0.09 -31.51 40.36 -19.78 -40.27zm-3707.82 6.69l3707.82 -6.69 0.1 49.88 -3707.82 6.69 -24.73 -20.97 24.63 -28.91zm-24.63 28.91l-4.66 -28.86 29.29 -0.05 -24.63 28.91zm150.66 933.11l-150.66 -933.11 49.36 -7.94 150.66 933.11 -24.62 28.91 -24.74 -20.97zm24.74 20.97l-21.35 0.06 -3.39 -21.03 24.74 20.97z"/>
   <polygon id="_1" fill="#0D4384" points="180,964.83 3009.22,957.51 3737.16,25.03 29.34,31.72 "/>
  </g>
 </g>
</svg>
