<?xml version="1.0" encoding="UTF-8"?>
<!DOCTYPE svg PUBLIC "-//W3C//DTD SVG 1.1//EN" "http://www.w3.org/Graphics/SVG/1.1/DTD/svg11.dtd">
<!-- Creator: CorelDRAW -->
<svg xmlns="http://www.w3.org/2000/svg" xml:space="preserve" width="100%" height="100%" version="1.1" style="shape-rendering:geometricPrecision; text-rendering:geometricPrecision; image-rendering:optimizeQuality; fill-rule:evenodd; clip-rule:evenodd"
viewBox="0 0 573.2 544.41"
 xmlns:xlink="http://www.w3.org/1999/xlink"
 xmlns:xodm="http://www.corel.com/coreldraw/odm/2003">
 <defs>
  <style type="text/css">
   <![CDATA[
    .fil0 {fill:#FABE0D;fill-rule:nonzero}
   ]]>
  </style>
 </defs>
 <g id="Слой_x0020_1">
  <metadata id="CorelCorpID_0Corel-Layer"/>
  <path class="fil0" d="M558.8 0l14.4 20.6c-58.99,44.45 -124.46,112.75 -196.71,205.04 -72.25,92.43 -127.29,178.65 -165.25,258.8l-30.62 20.74c-25.4,17.64 -42.61,30.62 -51.64,39.23 -3.67,-12.98 -11.43,-34.15 -23.57,-63.64l-11.57 -26.95c-16.51,-38.53 -31.89,-67.03 -46.14,-85.52 -14.12,-18.48 -30.06,-30.76 -47.7,-36.83 29.77,-31.32 57.01,-46.99 81.85,-46.99 21.16,0 44.73,28.79 70.69,86.36l12.7 28.93c46.57,-78.6 106.4,-154.94 179.35,-229.02 73.1,-74.09 144.5,-131.1 214.21,-170.75z"/>
 </g>
</svg>
