<?xml version="1.0" encoding="UTF-8"?>
<!DOCTYPE svg PUBLIC "-//W3C//DTD SVG 1.1//EN" "http://www.w3.org/Graphics/SVG/1.1/DTD/svg11.dtd">
<!-- Creator: CorelDRAW -->
<svg xmlns="http://www.w3.org/2000/svg" xml:space="preserve" width="100%" height="100%" version="1.1" shape-rendering="geometricPrecision" text-rendering="geometricPrecision" image-rendering="optimizeQuality" fill-rule="evenodd" clip-rule="evenodd"
viewBox="0 0 2895.42 798.75"
 xmlns:xlink="http://www.w3.org/1999/xlink"
 xmlns:xodm="http://www.corel.com/coreldraw/odm/2003">
 <g id="Слой_x0020_1">
  <metadata id="CorelCorpID_0Corel-Layer"/>
  <path fill="#2CD286" d="M193.02 0l2509.38 0c106.58,0 193.02,123.81 193.02,276.48l0 245.79c0,152.67 -86.44,276.48 -193.02,276.48l-2509.38 0c-106.58,0 -193.02,-123.81 -193.02,-276.48l0 -245.79c0,-152.67 86.44,-276.48 193.02,-276.48z"/>
  <g id="rocket.svg">
   <g>
    <path fill="white" fill-rule="nonzero" d="M565.54 117.58c-68.06,4.58 -147.62,40.22 -214.61,96.06 -25.58,21.35 -53.33,49.97 -71.59,73.78l-3.61 4.73 -36.62 0c-20.85,0.04 -38.76,0.22 -41.67,0.49 -7.15,0.66 -13.85,1.98 -20.61,4.18 -21.03,6.89 -39.29,22.06 -55.56,46.14 -6.67,9.88 -11.34,18.48 -27.31,50.32l-15.17 30.34 63.16 0 63.21 0 65.84 65.86 65.81 65.8 0 63.21 0 63.15 30.34 -15.17c31.72,-15.92 38.51,-19.58 47.91,-25.71 33.16,-21.65 49.92,-46.44 52.74,-77.76 0.26,-2.96 0.45,-20.37 0.45,-41.68l0.03 -36.61 4.06 -3.08c12.8,-9.71 29.65,-24.66 44.42,-39.47 28.8,-28.77 52.75,-59.38 73.09,-93.29 26.81,-44.72 44.67,-91.83 50.8,-134.08 2.39,-16.37 2.39,-16.45 2.56,-58.35l0.18 -39.35 -36.3 0.05c-19.99,0.05 -38.68,0.26 -41.55,0.44l0 0zm-86.71 132.27c4.45,1.1 10.98,4.11 14.73,6.79 3.13,2.26 8.74,7.94 10.81,10.98 2.34,3.44 5.25,9.97 6.31,14.25 1.36,5.52 1.36,15.97 0,21.04 -6.84,25.01 -32.07,38.86 -56.24,30.88 -6.26,-2.08 -11.43,-5.17 -16.27,-9.8 -7.94,-7.5 -12.57,-16.89 -13.54,-27.48 -2.16,-22.67 13.23,-43.09 35.59,-47.32 4.68,-0.88 13.68,-0.57 18.61,0.66l0 0 0 0z"/>
    <path fill="white" fill-rule="nonzero" d="M171.59 522.95c-13.71,13.89 -15.92,16.41 -21.04,24.17 -12.43,18.92 -23.59,49.75 -30.92,85.34 -2.11,10.46 -2.11,10.19 -0.48,10.02 3.58,-0.36 15.53,-2.56 23.51,-4.32 32.72,-7.28 61.22,-19.45 78.16,-33.44 1.1,-0.92 7.89,-7.54 15.13,-14.72l13.09 -13.11 -32.72 -32.72c-18.05,-18.04 -32.87,-32.77 -32.99,-32.77 -0.14,0 -5.43,5.2 -11.73,11.55l-0.01 0z"/>
   </g>
  </g>
  <g id="shield.svg">
   <g>
    <path fill="white" fill-rule="nonzero" d="M1736.7 101.75c-23.86,12.29 -60.44,28.5 -83.59,37.06 -26.56,9.73 -53.36,17.19 -81.33,22.63 -5.72,1.13 -36.01,6.19 -63.51,10.68 -6.62,1.04 -12.62,2.27 -13.33,2.64l-1.37 0.71 0 9.55c0,16.64 2.83,81.7 4.96,114.69 0.81,11.9 3.36,43.42 3.83,46.54 1.23,8.84 6.9,35.63 10.64,50.47 8.26,32.85 15.63,54.96 28.58,85.72 6.67,15.84 12.9,27.55 27.5,51.65 10.79,17.68 18.62,29.26 31.76,46.79 16.64,22.11 35.26,41.39 62.24,64.31 30.57,26.04 34.73,29.3 48.25,37.33 4.77,2.89 10.58,6.47 12.99,8.03 5.05,3.37 18.53,10.07 21.65,10.82 2.07,0.53 2.4,0.43 6.85,-1.41 8.7,-3.68 16.02,-7.37 20.74,-10.49 2.6,-1.66 8.7,-5.44 13.57,-8.36 11.76,-7.04 19.75,-13.28 46.45,-36.15 17.91,-15.37 20.03,-17.39 33.64,-31.62 17.81,-18.62 20.89,-22.3 36.72,-44.18 12.76,-17.63 19.99,-28.97 34.12,-53.26 11.81,-20.41 23.15,-46.45 33.84,-77.74 8.08,-23.76 19.27,-71.54 22.3,-95.21 3.26,-25.33 7.04,-93.99 8.6,-155.76 0.28,-11.58 0.23,-12.15 -0.57,-12.43 -2.78,-0.8 -23.16,-4.48 -38.46,-6.89 -20.89,-3.37 -41.21,-7 -51.75,-9.27 -30.24,-6.61 -59.64,-15.92 -89.79,-28.45 -18.57,-7.7 -43,-18.85 -61.24,-27.97 -13.38,-6.72 -12.1,-6.72 -24.29,-0.43l0 0 0 0z"/>
   </g>
  </g>
  <path fill="white" fill-rule="nonzero" d="M763.99 559.03l35.36 0 0 -318.79 -49.92 0 0 -35.88 44.73 0c17.67,0 30.06,3.8 37.17,11.44 7.11,7.62 10.67,18.71 10.67,33.27l0 309.96 32.24 0 0 35.36 -110.25 0 0 -35.36 0 0z"/>
  <path id="_1" fill="white" fill-rule="nonzero" d="M946.01 559.03l35.36 0 0 -318.79 -49.92 0 0 -35.88 44.72 0c17.68,0 30.07,3.8 37.18,11.44 7.11,7.62 10.67,18.71 10.67,33.27l0 309.96 32.23 0 0 35.36 -110.24 0 0 -35.36 0 0z"/>
  <path id="_2" fill="white" fill-rule="nonzero" d="M1277.8 204.36c21.15,0 36.49,5.8 46.03,17.42 9.53,11.61 14.3,28.86 14.3,51.74l0 250.15c0,24.96 -4.17,42.99 -12.49,54.08 -8.32,11.09 -23.39,16.64 -45.24,16.64l-89.45 0c-33.28,0 -52.87,-12.47 -58.77,-37.44 -2.07,-7.63 -3.12,-16.13 -3.12,-25.48l0 -257.95c0,-23.23 3.82,-40.04 11.44,-50.45 8.67,-12.47 24.11,-18.71 46.29,-18.71l91.01 0 0 0zm-107.13 354.67l125.85 0 0 -319.31 -125.85 0 0 319.31z"/>
  <path fill="white" fill-rule="nonzero" d="M2081.99 559.03l35.35 0 0 -318.79 -49.91 0 0 -35.88 44.72 0c17.68,0 30.07,3.8 37.18,11.44 7.11,7.62 10.67,18.71 10.67,33.27l0 309.96 32.23 0 0 35.36 -110.24 0 0 -35.36 0 0z"/>
  <path id="_1_0" fill="white" fill-rule="nonzero" d="M2685.24 204.36c21.16,0 36.49,5.8 46.04,17.42 9.53,11.61 14.29,28.86 14.29,51.74l0 250.15c0,24.96 -4.16,42.99 -12.48,54.08 -8.32,11.09 -23.4,16.64 -45.24,16.64l-89.45 0c-33.28,0 -52.87,-12.47 -58.77,-37.44 -2.07,-7.63 -3.12,-16.13 -3.12,-25.48l0 -257.95c0,-23.23 3.82,-40.04 11.44,-50.45 8.67,-12.47 24.1,-18.71 46.29,-18.71l91 0 0 0zm-107.13 354.67l125.86 0 0 -319.31 -125.86 0 0 319.31z"/>
  <path id="_2_1" fill="white" fill-rule="nonzero" d="M2413.78 204.36c21.15,0 36.49,5.8 46.03,17.42 9.53,11.61 14.3,28.86 14.3,51.74l0 250.15c0,24.96 -4.17,42.99 -12.49,54.08 -8.32,11.09 -23.39,16.64 -45.24,16.64l-89.45 0c-33.28,0 -52.87,-12.47 -58.77,-37.44 -2.07,-7.63 -3.12,-16.13 -3.12,-25.48l0 -257.95c0,-23.23 3.82,-40.04 11.44,-50.45 8.67,-12.47 24.1,-18.71 46.29,-18.71l91.01 0 0 0zm-107.13 354.67l125.85 0 0 -319.31 -125.85 0 0 319.31z"/>
 </g>
</svg>
