<!-- icon666.com - MILLIONS vector ICONS FREE --><svg viewBox="0 0 56 56" xmlns="http://www.w3.org/2000/svg"><g id="011---Alien-Space-Ship" transform="translate(0 -1)"><path id="Shape" d="m4 46c-.55228475 0-1 .4477153-1 1v6c0 .5522847.44771525 1 1 1s1-.4477153 1-1v-1-5c0-.5522847-.44771525-1-1-1z"></path><path id="Shape" d="m1 45.62c.08686072-.4172474.29979793-.7977418.61-1.09.18206313-.1606018.3878172-.2921495.61-.39.51-.14.67-.14 2.78-.14 1.1045695 0 2 .8954305 2 2 0 1.56 2.57 2.59 7 2.9l-5.47-7.81c-.34853766-.5055778-.53353168-1.1059357-.53-1.72v-7.45l-8 5.6v5.82c.00070021.7953814.31723005 1.5579306.88 2.12z"></path><path id="Shape" d="m8 12.45c.00098748-1.1741874.41518397-2.3105726 1.17-3.21l5.58-6.66c.33407-.36165552.3324848-.91980878-.003634-1.27956094s-.8928784-.3992023-1.276366-.09043906l-12.39 10.36c-.68293224.5688303-1.07848063 1.4112019-1.08 2.3v11.21l8-5.6z"></path><path id="Shape" d="m28 28c-1 0-2.76 0-3 5h6c-.24-5-2-5-3-5z"></path><path id="Shape" d="m56 13.87c-.0015194-.8887981-.3970678-1.7311697-1.08-2.3l-12.41-10.38c-.2005398-.15813311-.4572844-.22683942-.71-.19-.3203433.08073582-.5801407.31447388-.6941627.6245337s-.0675529.65642495.1241627.9254663l5.6 6.68c.7570261.90206 1.1713644 2.0423758 1.17 3.22v7l8 5.6z"></path><path id="Shape" d="m8 21.92-8 5.6v2.56l8-5.6z"></path><path id="Shape" d="m8 26.92-8 5.6v2.56l8-5.6z"></path><path id="Shape" d="m56 37.52-8-5.6v7.45c.0005962.6151366-.1879177 1.2155881-.54 1.72l-5.46 7.81c4.44-.31 7-1.34 7-2.9 0-1.1045695.8954305-2 2-2 1.94 0 3.41-.32 4 1.62l.16-.16c.5481293-.5685553.8499588-1.3303155.84-2.12z"></path><path id="Shape" d="m25.18 49h5.64c-.46-1.42-1.73-3-2.82-3s-2.36 1.58-2.82 3z"></path><path id="Shape" d="m56 27.52-8-5.6v2.56l8 5.6z"></path><path id="Shape" d="m56 32.52-8-5.6v2.56l8 5.6z"></path><path id="Shape" d="m52 46c-.5522847 0-1 .4477153-1 1v6c0 .5522847.4477153 1 1 1s1-.4477153 1-1v-6c0-.5522847-.4477153-1-1-1z"></path><path id="Shape" d="m18 57c.3147573 0 .6111456-.1481942.8-.4l1.8-2.4c.5665631-.7554175 1.4557281-1.2 2.4-1.2h10c.9442719 0 1.8334369.4445825 2.4 1.2l1.8 2.4c.1888544.2518058.4852427.4.8.4h4.34c.7953814-.0007002 1.5579306-.3172301 2.12-.88l4.54-4.53v-2.37c-1.94 1.18-5.27 1.78-10 1.78-.0465494.0046784-.0934506.0046784-.14 0-1.0049741.0758968-1.9955681-.2741352-2.7297533-.9645736-.7341852-.6904385-1.1443379-1.657689-1.1302467-2.6654264v-14.37c0-6.06-2.29-9-7-9s-7 2.94-7 9v14.37c.011024 1.0067829-.400069 1.9721755-1.1335311 2.6619339-.7334621.6897583-1.7222594 1.0408429-2.7264689.9680661-.0465494.0046784-.0934506.0046784-.14 0-4.73 0-8.06-.6-10-1.78v2.37l4.54 4.53c.5620694.5627699 1.3246186.8792998 2.12.88zm7-22c-.5482225.0006857-1.0726927-.2236991-1.4507775-.6206881s-.5766341-.9317747-.5492225-1.4793119c.21-4.64 1.84-6.9 5-6.9s4.77 2.26 5 6.91c.0245883.5458479-.1752198 1.0779898-.5529906 1.4727602-.3777707.3947705-.9006083.6177933-1.4470094.6172398h-2v9.16c2.28.72 4 3.76 4 5.84 0 .5522847-.4477153 1-1 1h-8c-.5522847 0-1-.4477153-1-1 0-2.08 1.72-5.12 4-5.84v-9.16z"></path></g></svg>