<?xml version="1.0" encoding="UTF-8" ?>
<!DOCTYPE svg PUBLIC "-//W3C//DTD SVG 1.1//EN" "http://www.w3.org/Graphics/SVG/1.1/DTD/svg11.dtd">
<svg width="512pt" height="512pt" viewBox="0 0 512 512" version="1.1" xmlns="http://www.w3.org/2000/svg">
<g id="#000000ff">
<path fill="#000000" opacity="1.00" d=" M 208.79 0.00 L 219.62 0.00 C 225.09 0.61 230.60 1.11 236.00 2.30 C 259.89 7.24 281.74 21.00 296.79 40.16 C 313.40 61.04 321.67 88.37 319.10 114.96 C 318.48 120.11 318.47 125.81 315.02 130.03 C 310.60 135.89 301.61 137.58 295.45 133.54 C 290.01 130.31 287.29 123.54 288.59 117.41 C 292.37 94.96 285.08 71.09 269.60 54.44 C 257.17 40.78 239.55 31.97 221.15 30.35 C 204.42 28.73 187.19 32.88 173.12 42.09 C 158.66 51.42 147.56 65.81 142.25 82.18 C 138.46 93.64 137.61 106.00 139.57 117.90 C 141.08 124.98 136.85 132.73 129.97 135.08 C 122.12 138.22 112.47 133.12 110.44 124.97 C 104.07 93.38 113.77 59.26 135.32 35.38 C 153.80 14.36 180.89 1.54 208.79 0.00 Z" />
<path fill="#000000" opacity="1.00" d=" M 192.98 66.07 C 204.92 59.77 219.78 59.34 232.04 65.01 C 247.78 72.08 258.69 88.63 258.79 105.91 C 258.89 136.75 258.80 167.59 258.83 198.44 C 267.56 195.57 277.13 195.15 285.97 197.78 C 297.88 201.10 308.00 209.67 313.68 220.60 C 323.64 215.80 335.33 214.62 345.96 217.79 C 357.87 221.08 367.98 229.67 373.67 240.58 C 387.75 233.53 405.40 234.68 418.41 243.55 C 430.83 251.62 438.70 266.13 438.54 280.96 C 438.57 330.63 438.54 380.31 438.55 429.98 C 438.56 436.04 438.66 442.13 437.70 448.13 C 434.91 467.30 424.24 485.12 408.77 496.77 C 396.88 505.88 382.23 511.05 367.31 512.00 L 238.49 512.00 C 219.01 511.12 199.97 502.56 186.67 488.26 C 152.98 452.36 119.32 416.42 85.64 380.50 C 78.82 373.35 74.30 363.98 73.30 354.12 C 72.02 342.83 75.25 331.09 82.18 322.08 C 89.08 312.94 99.62 306.63 110.98 305.02 C 125.09 302.82 140.10 307.67 150.16 317.83 C 156.39 324.17 162.46 330.66 168.60 337.09 C 168.62 263.05 168.61 189.02 168.61 114.98 C 168.64 108.33 168.28 101.56 169.98 95.05 C 173.02 82.69 181.63 71.85 192.98 66.07 M 209.41 91.62 C 203.22 93.43 198.50 99.50 198.62 106.01 C 198.58 195.36 198.63 284.73 198.60 374.09 C 198.79 379.66 195.65 385.19 190.64 387.71 C 185.01 390.82 177.44 389.78 173.01 385.07 C 158.27 369.77 143.69 354.32 128.95 339.02 C 123.38 333.33 113.24 332.78 107.52 338.54 C 101.64 343.99 101.60 354.17 107.31 359.76 C 141.02 395.70 174.71 431.67 208.43 467.60 C 216.96 476.80 229.42 482.08 241.95 481.99 C 282.28 482.01 322.61 482.00 362.95 481.99 C 372.91 482.09 382.88 478.85 390.78 472.75 C 401.84 464.45 408.60 450.81 408.53 436.97 C 408.57 384.98 408.56 332.99 408.53 280.99 C 408.59 274.46 403.89 268.27 397.57 266.58 C 390.49 264.37 382.29 268.54 379.66 275.43 C 377.41 280.50 379.66 286.29 377.50 291.39 C 375.02 298.19 367.11 302.43 360.08 300.56 C 353.81 299.14 348.90 293.32 348.60 286.89 C 348.41 277.91 348.69 268.91 348.48 259.93 C 348.09 252.11 340.74 245.56 332.94 246.01 C 325.53 246.23 318.95 252.59 318.61 260.01 C 318.41 269.01 318.69 278.02 318.48 287.02 C 318.12 295.25 310.01 302.03 301.84 300.89 C 294.48 300.14 288.41 293.35 288.56 285.94 C 288.52 270.95 288.59 255.96 288.53 240.97 C 288.62 233.91 283.08 227.38 276.13 226.24 C 268.15 224.62 259.42 230.83 258.85 239.04 C 258.79 254.72 258.88 270.40 258.81 286.08 C 258.96 293.98 251.88 301.06 243.99 300.99 C 235.85 301.41 228.35 294.14 228.56 285.99 C 228.60 225.95 228.87 165.91 228.78 105.88 C 228.66 96.44 218.59 88.50 209.41 91.62 Z" />
</g>
</svg>
