<?xml version="1.0" standalone="no"?>
<!DOCTYPE svg PUBLIC "-//W3C//DTD SVG 20010904//EN"
 "http://www.w3.org/TR/2001/REC-SVG-20010904/DTD/svg10.dtd">
<svg version="1.0" xmlns="http://www.w3.org/2000/svg"
 width="1280.000000pt" height="1131.000000pt" viewBox="0 0 1280.000000 1131.000000"
 preserveAspectRatio="xMidYMid meet">
<metadata>
Created by potrace 1.15, written by Peter Selinger 2001-2017
</metadata>
<g transform="translate(0.000000,1131.000000) scale(0.100000,-0.100000)"
fill="#000000" stroke="none">
<path d="M3920 11253 c-36 -30 -150 -128 -255 -217 -885 -756 -1799 -1661
-2796 -2771 -114 -127 -339 -396 -499 -600 -161 -203 -311 -392 -333 -418 -22
-26 -38 -49 -36 -51 16 -12 756 -631 1059 -886 444 -373 398 -336 443 -355
l36 -15 16 33 c27 55 283 397 519 692 253 317 779 935 795 935 5 0 91 -84 192
-187 101 -104 656 -669 1234 -1257 577 -588 1053 -1075 1058 -1082 5 -9 -76
-95 -265 -281 -150 -147 -428 -421 -618 -608 -190 -188 -757 -746 -1260 -1240
-503 -494 -1146 -1129 -1428 -1410 l-513 -511 84 -174 c81 -168 89 -180 189
-290 268 -295 529 -493 654 -495 41 0 42 1 310 280 431 451 1160 1210 1410
1470 126 132 502 524 835 870 332 347 795 830 1028 1072 l424 442 159 -151
c220 -210 1278 -1283 3057 -3103 387 -396 755 -771 817 -834 l112 -114 64 17
c153 42 347 168 531 346 180 173 301 334 364 485 46 109 56 90 -149 285 -101
96 -570 544 -1043 995 -473 451 -1107 1056 -1410 1345 -302 289 -797 761
-1100 1050 -504 480 -550 527 -550 556 0 34 7 40 1461 1554 532 554 910 942
924 950 14 7 75 -47 321 -287 200 -194 318 -301 344 -313 74 -32 2028 -917
2360 -1069 181 -83 330 -149 330 -148 1 1 -124 238 -277 527 -387 729 -725
1367 -891 1680 -188 356 -236 419 -591 778 l-220 222 80 83 c89 90 119 130
129 168 5 22 -24 53 -282 299 -158 151 -320 306 -360 343 l-72 69 -109 -106
c-60 -58 -115 -106 -123 -106 -7 0 -344 331 -749 735 -622 622 -740 735 -763
735 -24 0 -132 -103 -693 -662 -365 -365 -664 -668 -664 -674 0 -17 355 -364
700 -686 485 -453 700 -675 757 -785 l28 -53 -160 -158 c-183 -181 -1787
-1758 -2117 -2081 -216 -212 -218 -213 -242 -197 -14 8 -321 300 -683 648
-363 348 -939 901 -1282 1228 l-622 595 81 77 c140 134 341 311 815 717 253
217 538 464 633 549 l172 154 -41 46 c-226 255 -670 765 -1067 1225 -114 133
-158 177 -175 176 -12 0 -51 -25 -87 -56z"/>
</g>
</svg>
