<?xml version="1.0" encoding="UTF-8" ?>
<!DOCTYPE svg PUBLIC "-//W3C//DTD SVG 1.1//EN" "http://www.w3.org/Graphics/SVG/1.1/DTD/svg11.dtd">
<svg width="1000pt" height="1000pt" viewBox="0 0 1000 1000" version="1.1" xmlns="http://www.w3.org/2000/svg">
<g id="#ffffffff">
</g>
<g id="#000000ff">
<path fill="#000000" opacity="1.00" d=" M 504.05 49.34 C 507.52 48.49 511.40 48.09 514.27 50.68 C 539.04 70.59 563.70 90.65 588.40 110.64 C 594.04 115.59 600.18 121.21 601.66 128.92 C 602.84 136.67 596.87 142.88 591.56 147.62 C 580.02 157.44 567.29 165.85 556.53 176.59 C 543.60 187.62 530.47 198.43 517.47 209.38 C 514.43 211.91 509.81 214.22 506.01 211.97 C 501.95 208.63 501.89 202.80 501.48 197.98 C 501.31 186.98 501.94 175.97 501.96 164.97 C 476.94 166.83 451.76 168.18 427.17 173.50 C 401.78 178.77 377.36 187.93 353.79 198.62 C 324.45 212.37 295.51 228.35 272.06 251.04 C 256.93 264.89 240.99 278.08 228.30 294.32 C 203.31 326.01 181.80 360.83 167.81 398.81 C 155.99 430.57 149.57 464.19 147.36 497.96 C 145.94 520.33 145.67 542.85 148.38 565.14 C 153.72 610.51 168.59 654.57 190.47 694.60 C 208.02 726.90 230.95 756.15 257.34 781.68 C 272.71 796.51 289.33 810.09 307.23 821.77 C 322.03 831.56 338.01 839.39 354.16 846.67 C 389.01 862.31 426.01 873.62 464.05 877.93 C 502.19 882.40 540.97 879.74 578.49 871.80 C 593.97 868.48 609.40 864.67 624.30 859.23 C 637.39 854.55 650.01 848.67 662.48 842.53 C 671.75 838.09 680.88 833.07 690.89 830.47 C 697.72 828.67 705.27 828.94 711.59 832.31 C 719.47 836.52 726.47 843.20 729.38 851.83 C 733.67 864.15 729.78 878.53 720.67 887.67 C 715.85 892.60 709.35 895.21 703.42 898.49 C 659.13 921.26 611.51 938.27 562.12 945.48 C 547.18 947.59 532.09 948.71 517.01 948.49 C 481.23 948.39 445.26 946.33 410.20 938.78 C 374.24 931.13 339.67 917.75 307.04 900.91 C 272.38 882.56 239.92 859.84 211.44 832.83 C 198.84 820.66 187.39 807.37 175.66 794.38 C 163.15 780.49 152.97 764.73 143.01 748.98 C 117.98 708.64 99.25 664.33 88.39 618.09 C 75.72 564.54 73.72 508.48 82.64 454.18 C 95.00 377.75 129.19 305.25 179.26 246.30 C 202.65 218.66 229.31 193.71 258.95 172.89 C 290.10 150.95 324.46 133.66 360.54 121.47 C 405.66 106.08 453.20 98.59 500.75 96.64 C 501.21 84.73 499.03 72.82 500.44 60.95 C 500.91 56.89 502.14 52.95 504.05 49.34 Z" />
<path fill="#000000" opacity="1.00" d=" M 712.26 161.39 C 716.13 159.54 720.60 160.79 724.74 160.51 L 724.12 161.65 C 725.06 161.56 726.92 161.39 727.85 161.30 L 727.07 162.62 C 727.95 162.57 729.70 162.45 730.58 162.40 L 730.31 163.86 C 730.80 163.70 731.79 163.37 732.28 163.21 L 732.96 169.63 L 733.82 163.51 C 733.99 164.06 734.32 165.17 734.48 165.73 L 735.75 165.20 L 735.35 166.87 L 737.40 166.17 C 737.40 167.00 737.42 168.65 737.43 169.47 L 738.34 166.76 L 738.87 172.79 C 739.14 171.38 739.69 168.56 739.96 167.15 L 740.32 169.32 C 742.46 169.82 744.55 170.72 745.86 172.59 L 746.43 171.94 L 746.28 173.30 C 746.93 173.65 748.22 174.34 748.87 174.69 L 749.30 174.16 L 749.95 180.27 L 750.83 174.58 C 751.00 175.13 751.33 176.24 751.49 176.79 L 752.32 176.28 L 752.92 182.21 L 753.90 176.62 C 754.08 177.43 754.45 179.05 754.63 179.85 C 755.10 179.66 756.04 179.28 756.51 179.09 L 756.25 180.26 C 758.41 180.64 759.39 182.77 761.01 183.98 C 762.16 185.53 764.18 186.47 764.64 188.50 C 765.12 188.67 766.09 189.02 766.57 189.19 L 760.63 190.05 L 766.87 190.70 C 766.70 191.13 766.36 192.00 766.19 192.43 C 766.83 192.60 768.12 192.94 768.77 193.11 L 762.62 194.04 L 768.99 194.75 C 768.45 195.56 767.37 197.18 766.83 197.99 L 769.60 197.16 C 769.52 198.72 769.43 200.28 769.34 201.85 C 769.61 201.70 770.14 201.40 770.41 201.25 C 770.56 205.08 770.55 208.92 770.47 212.76 L 769.43 212.13 C 769.48 213.99 769.54 215.86 769.58 217.73 C 769.26 217.58 768.62 217.26 768.30 217.11 C 768.40 217.92 768.61 219.53 768.72 220.34 C 767.26 220.48 764.34 220.75 762.89 220.89 C 764.37 221.18 767.34 221.76 768.83 222.05 L 761.52 222.97 C 763.11 223.24 766.30 223.77 767.90 224.04 L 760.46 224.97 L 766.82 225.94 C 764.98 226.21 761.31 226.74 759.47 227.00 L 765.48 227.86 C 764.66 228.04 763.01 228.41 762.18 228.59 C 762.34 229.08 762.66 230.06 762.82 230.56 L 757.88 230.17 L 762.45 231.35 L 755.95 231.87 L 761.01 232.81 C 759.65 233.99 758.10 235.02 756.22 234.95 L 756.90 236.35 C 756.21 236.38 754.84 236.44 754.15 236.47 L 754.63 237.85 C 754.12 237.69 753.11 237.38 752.60 237.22 C 752.41 237.87 752.04 239.18 751.86 239.83 L 751.00 233.52 C 750.74 235.36 750.22 239.04 749.96 240.88 L 748.96 235.13 C 748.77 236.56 748.39 239.42 748.20 240.85 C 747.34 240.77 745.61 240.60 744.75 240.52 C 740.64 242.65 735.73 241.12 731.31 241.36 L 731.95 240.40 C 730.47 240.44 729.00 240.48 727.54 240.53 C 727.53 240.15 727.51 239.39 727.51 239.01 C 726.97 239.29 725.89 239.85 725.35 240.13 L 725.91 238.46 C 725.04 238.48 723.30 238.52 722.43 238.54 L 722.65 237.10 C 722.14 237.29 721.12 237.67 720.61 237.86 L 720.55 236.07 C 719.99 236.34 718.87 236.87 718.31 237.13 L 721.49 232.94 L 717.68 236.13 L 717.07 230.71 L 716.20 235.32 C 713.60 233.37 713.91 231.37 717.12 229.32 C 715.82 230.37 713.23 232.48 711.94 233.53 L 715.42 229.18 L 710.51 232.72 L 713.77 229.09 C 712.32 231.49 708.09 231.05 708.20 228.09 C 707.70 228.38 706.72 228.96 706.23 229.24 L 709.58 224.83 L 705.67 228.13 L 705.12 221.76 L 704.14 227.65 C 703.95 227.03 703.59 225.79 703.40 225.18 L 701.57 225.78 L 705.33 221.11 C 704.13 222.14 701.75 224.20 700.56 225.23 L 700.84 223.32 L 699.20 223.88 L 699.85 222.65 C 697.91 222.81 697.10 221.95 697.41 220.07 C 696.97 220.29 696.10 220.73 695.66 220.95 L 695.11 214.98 L 694.11 220.39 C 693.95 219.67 693.64 218.23 693.49 217.51 C 692.77 217.36 691.34 217.06 690.62 216.91 L 695.70 215.82 L 690.05 215.38 L 690.78 214.23 L 688.15 214.07 C 689.59 213.78 692.46 213.20 693.89 212.91 C 689.92 213.57 687.05 212.96 687.31 209.12 L 685.95 209.55 L 685.82 208.68 L 691.59 208.04 L 684.21 207.03 C 685.60 206.75 688.37 206.20 689.75 205.92 C 685.47 206.94 683.70 205.66 684.45 202.09 L 683.40 202.70 C 683.46 201.21 683.56 199.72 683.70 198.24 C 683.44 198.34 682.92 198.55 682.67 198.65 C 682.60 195.56 682.61 192.47 682.68 189.39 L 683.48 189.95 C 683.45 188.32 683.44 186.63 684.39 185.22 C 684.42 184.54 684.50 183.19 684.54 182.51 L 685.89 182.58 C 685.71 182.12 685.34 181.19 685.15 180.72 L 691.47 180.04 L 685.39 179.18 C 685.86 179.02 686.80 178.70 687.27 178.54 C 687.62 177.92 688.31 176.69 688.65 176.07 L 688.19 175.68 L 694.24 175.08 L 688.63 174.11 C 689.33 173.94 690.73 173.61 691.43 173.44 C 691.65 172.24 692.18 171.17 693.02 170.23 C 693.36 170.39 694.04 170.69 694.38 170.84 C 694.56 170.03 694.93 168.42 695.11 167.61 L 696.08 173.14 L 696.69 167.04 L 697.42 167.97 C 697.62 167.33 698.02 166.06 698.22 165.42 L 698.98 171.35 C 699.25 169.55 699.77 165.95 700.04 164.16 L 701.07 170.02 C 701.34 168.47 701.88 165.36 702.16 163.81 L 703.15 167.65 L 703.65 163.11 C 704.17 163.30 705.22 163.69 705.75 163.89 L 705.32 162.42 C 706.22 162.46 708.00 162.56 708.89 162.60 L 708.30 161.50 C 709.61 161.48 710.93 161.44 712.26 161.39 Z" />
<path fill="#000000" opacity="1.00" d=" M 809.56 251.33 C 809.72 252.37 810.05 254.45 810.22 255.48 L 810.54 250.62 C 813.25 250.63 815.98 250.64 818.71 250.67 L 818.09 251.58 C 819.92 251.49 821.76 251.55 823.61 251.53 L 823.14 252.43 C 826.79 251.78 828.06 253.66 826.95 258.08 L 827.93 252.28 C 828.12 253.27 828.51 255.25 828.71 256.24 C 828.96 253.01 831.38 255.27 832.83 255.53 L 832.12 256.77 C 832.66 256.64 833.76 256.38 834.31 256.25 L 834.93 262.57 L 835.88 256.55 C 836.07 257.37 836.43 259.00 836.62 259.82 C 837.08 259.66 838.00 259.33 838.46 259.17 L 838.42 260.93 L 839.94 260.22 L 839.03 261.86 L 840.77 261.16 L 840.21 262.71 L 841.88 262.51 C 841.70 262.97 841.33 263.90 841.15 264.36 C 841.98 264.55 843.63 264.92 844.45 265.11 L 838.67 266.07 L 844.75 266.69 C 844.63 267.20 844.38 268.23 844.26 268.75 L 845.97 268.52 C 845.74 269.05 845.26 270.11 845.03 270.64 L 846.48 270.38 C 846.45 271.12 846.41 272.61 846.39 273.35 C 849.57 273.32 851.44 276.07 853.38 278.15 L 848.80 279.08 C 850.46 279.34 853.78 279.87 855.43 280.13 L 849.53 281.07 L 855.80 281.69 C 855.65 282.21 855.37 283.24 855.23 283.76 L 857.42 283.34 C 856.36 284.53 854.25 286.91 853.19 288.10 C 855.59 281.38 858.87 286.04 858.71 288.84 L 859.91 288.52 C 859.70 289.04 859.29 290.09 859.09 290.62 L 860.56 290.46 C 860.52 291.31 860.44 293.02 860.39 293.88 L 861.64 293.28 C 861.57 294.18 861.44 295.97 861.37 296.87 L 862.47 296.34 C 862.12 301.77 863.60 307.59 861.60 312.75 C 861.56 313.46 861.48 314.86 861.44 315.57 L 860.12 315.35 C 860.32 315.90 860.71 317.01 860.90 317.56 L 859.12 317.31 C 859.32 317.81 859.71 318.80 859.90 319.30 L 853.86 319.96 L 859.27 320.77 C 858.43 321.74 857.40 322.39 856.18 322.73 C 856.35 323.12 856.71 323.91 856.89 324.31 L 850.67 324.91 L 856.37 325.90 C 855.67 326.06 854.28 326.37 853.58 326.53 C 852.98 327.73 852.50 328.99 851.78 330.13 L 850.95 324.91 L 850.28 330.92 L 849.55 330.06 C 849.37 330.69 849.02 331.95 848.85 332.58 L 847.93 326.98 L 847.29 333.27 L 846.54 330.51 C 846.47 331.37 846.35 333.09 846.28 333.95 L 844.45 332.98 L 844.57 334.32 C 842.79 334.26 841.37 334.77 840.66 336.49 L 840.00 330.74 C 839.84 332.23 839.50 335.22 839.33 336.72 C 838.27 336.63 836.15 336.44 835.09 336.35 L 835.79 337.52 C 830.28 337.55 824.77 337.58 819.27 337.48 C 819.42 337.19 819.71 336.60 819.86 336.30 C 819.07 336.40 817.49 336.59 816.70 336.68 L 816.03 330.77 L 815.28 336.13 L 814.51 336.03 L 814.72 334.18 C 814.21 334.35 813.18 334.70 812.67 334.88 L 812.07 328.77 L 811.13 334.62 C 810.98 333.99 810.67 332.73 810.52 332.10 L 809.64 333.02 L 809.16 327.19 L 808.09 332.42 C 807.94 331.69 807.63 330.23 807.48 329.50 C 806.76 329.35 805.32 329.06 804.60 328.91 L 809.83 327.86 L 804.02 327.34 C 804.59 326.80 805.72 325.74 806.29 325.21 L 802.49 325.69 L 803.02 325.24 C 800.95 322.85 797.38 321.13 797.43 317.55 C 796.71 317.39 795.27 317.06 794.55 316.89 L 800.39 315.93 L 793.79 315.29 C 794.83 314.19 796.90 312.00 797.94 310.91 L 794.15 313.54 C 793.52 313.40 792.27 313.11 791.65 312.97 L 796.51 311.73 L 791.26 311.41 C 791.38 310.84 791.60 309.69 791.72 309.12 L 789.99 309.90 L 790.86 308.30 C 788.37 308.75 787.71 305.19 786.40 303.60 L 789.17 303.01 C 787.99 302.73 785.63 302.17 784.44 301.89 L 790.60 300.93 L 784.21 300.31 C 784.36 299.80 784.66 298.79 784.82 298.28 L 783.61 298.61 C 783.19 295.00 781.15 291.71 781.45 288.01 C 781.74 284.11 780.60 279.86 782.41 276.23 C 782.42 275.59 782.45 274.31 782.46 273.66 L 788.24 273.05 L 782.28 272.11 C 782.87 271.93 784.05 271.58 784.64 271.40 C 784.59 270.68 784.48 269.25 784.42 268.54 L 785.92 268.68 L 785.00 267.13 L 786.82 267.81 C 786.66 267.28 786.36 266.22 786.21 265.69 L 792.44 265.06 L 786.59 264.12 C 787.40 263.93 789.01 263.56 789.82 263.38 C 789.70 263.05 789.47 262.39 789.35 262.06 C 790.95 261.23 792.19 259.91 793.09 258.36 C 793.39 258.47 793.99 258.69 794.29 258.80 C 793.98 256.53 795.81 256.52 797.39 256.43 C 797.13 254.26 799.39 254.63 800.83 254.30 L 800.78 252.24 C 801.11 253.68 801.78 256.55 802.11 257.99 C 800.94 253.57 802.20 251.73 805.89 252.48 C 805.73 252.24 805.40 251.77 805.24 251.53 C 806.32 251.48 808.48 251.38 809.56 251.33 Z" />
<path fill="#000000" opacity="1.00" d=" M 429.69 265.49 C 433.34 265.69 437.29 264.69 440.72 266.34 C 441.98 266.47 443.25 266.57 444.53 266.65 L 444.19 267.57 C 445.04 267.57 446.74 267.55 447.59 267.55 L 447.33 268.87 C 447.88 268.68 448.99 268.30 449.54 268.11 L 449.50 271.82 C 449.53 267.95 452.53 269.57 454.05 270.63 C 454.45 270.47 455.24 270.14 455.64 269.98 L 455.09 271.57 C 456.01 271.52 457.85 271.41 458.77 271.36 L 458.05 272.58 C 458.96 272.54 460.79 272.45 461.70 272.40 L 461.09 273.44 C 464.63 272.77 465.93 274.57 464.98 278.82 L 465.89 273.28 C 466.05 273.83 466.37 274.94 466.53 275.49 C 468.08 275.51 469.90 275.24 470.98 276.69 C 471.37 276.53 472.15 276.20 472.55 276.03 L 472.13 277.56 C 473.01 277.53 474.77 277.47 475.66 277.43 L 475.16 278.37 C 477.03 278.68 478.87 279.19 480.75 279.55 L 480.14 280.68 C 481.01 280.57 482.75 280.35 483.62 280.24 C 483.53 280.60 483.34 281.32 483.25 281.68 C 484.12 281.59 485.86 281.41 486.72 281.33 L 486.13 282.63 C 487.02 282.57 488.80 282.44 489.69 282.38 L 489.09 283.54 C 490.02 283.54 491.87 283.52 492.79 283.51 L 492.15 284.52 C 495.32 284.04 497.67 286.82 500.81 286.60 L 500.09 289.24 C 501.00 288.69 502.82 287.59 503.73 287.04 L 503.11 288.64 C 504.02 288.56 505.83 288.40 506.74 288.32 L 506.15 289.65 C 507.05 289.57 508.84 289.41 509.73 289.33 L 509.13 290.65 C 510.02 290.57 511.81 290.40 512.70 290.32 L 512.05 291.54 C 513.01 291.52 514.91 291.47 515.86 291.44 L 515.05 292.64 C 515.97 292.57 517.81 292.42 518.73 292.34 L 518.11 293.47 C 519.77 293.51 521.75 293.17 522.94 294.68 C 523.39 294.54 524.29 294.25 524.74 294.11 L 524.17 295.64 C 525.06 295.56 526.85 295.39 527.75 295.31 L 527.12 296.40 C 529.37 296.43 531.54 297.12 533.73 297.59 L 533.13 298.42 C 535.41 298.37 537.56 299.13 539.76 299.61 L 539.18 300.69 C 540.08 300.57 541.88 300.33 542.77 300.20 L 542.12 301.42 C 544.39 301.38 546.55 302.09 548.75 302.60 L 548.14 303.54 C 549.58 303.53 551.04 303.54 552.50 303.55 L 552.39 304.88 C 552.94 304.68 554.04 304.27 554.59 304.07 L 554.16 305.61 C 555.05 305.54 556.81 305.41 557.70 305.34 L 557.07 306.65 C 557.88 306.56 559.50 306.37 560.31 306.28 C 560.48 307.71 560.82 310.58 560.99 312.01 L 561.66 307.09 C 562.17 307.26 563.19 307.59 563.70 307.76 L 563.14 308.62 C 564.02 308.57 565.76 308.49 566.63 308.45 L 566.17 309.38 C 568.04 309.68 569.88 310.20 571.75 310.58 L 571.17 311.67 C 572.06 311.58 573.85 311.39 574.74 311.29 L 574.12 312.53 C 575.57 312.53 577.03 312.54 578.49 312.54 L 578.31 313.54 C 578.86 313.56 579.97 313.60 580.52 313.63 L 580.55 316.62 L 581.92 314.81 C 582.35 314.62 583.22 314.24 583.65 314.05 L 583.19 315.68 C 584.08 315.58 585.84 315.38 586.72 315.29 L 586.12 316.67 C 586.91 316.58 588.51 316.39 589.31 316.30 C 589.48 317.78 589.83 320.76 590.00 322.24 L 590.65 316.91 C 591.79 317.99 593.12 318.69 594.74 318.55 L 594.15 319.72 C 594.93 319.60 596.49 319.34 597.27 319.21 C 597.45 320.68 597.81 323.63 598.00 325.10 L 598.66 319.93 C 599.83 321.01 601.18 321.75 602.84 321.43 L 601.99 322.55 C 602.82 322.51 604.47 322.44 605.30 322.40 L 605.99 327.95 L 606.65 323.08 C 607.14 323.26 608.13 323.61 608.63 323.79 L 608.38 324.95 C 608.93 324.71 610.04 324.23 610.59 323.99 L 610.17 325.58 C 611.00 325.54 612.67 325.45 613.50 325.41 L 613.72 329.58 L 614.73 326.23 C 615.21 326.35 616.19 326.58 616.67 326.70 L 616.30 327.91 C 616.88 327.70 618.02 327.27 618.60 327.05 L 618.23 328.69 C 619.08 328.58 620.79 328.36 621.65 328.25 C 621.52 328.58 621.27 329.24 621.14 329.57 C 622.02 329.55 623.78 329.50 624.66 329.48 L 624.19 330.42 C 626.05 330.67 627.86 331.21 629.72 331.60 L 629.06 332.54 C 629.96 332.53 631.76 332.50 632.66 332.49 L 632.29 333.88 C 632.86 333.69 633.99 333.30 634.56 333.10 L 634.45 336.71 C 635.04 333.51 638.25 334.72 640.37 334.38 C 642.26 334.11 643.92 335.21 645.64 335.79 C 645.51 336.01 645.26 336.45 645.13 336.66 C 646.05 336.58 647.88 336.43 648.79 336.35 L 648.06 337.63 C 648.87 337.56 650.49 337.43 651.30 337.37 L 651.98 343.04 L 652.66 338.08 C 653.17 338.26 654.19 338.62 654.71 338.80 L 654.32 339.97 C 654.90 339.72 656.05 339.22 656.63 338.97 L 656.16 340.47 C 657.75 340.40 659.46 340.41 660.85 341.35 C 661.30 341.41 662.21 341.54 662.66 341.60 L 662.30 344.21 C 663.41 342.67 664.90 342.07 666.78 342.42 L 666.05 343.67 C 666.87 343.57 668.51 343.37 669.33 343.27 C 669.48 344.74 669.79 347.68 669.94 349.15 L 670.90 343.31 C 671.09 343.91 671.45 345.10 671.64 345.70 C 672.30 345.59 673.63 345.38 674.30 345.27 L 674.98 351.19 L 675.66 346.08 C 676.18 346.24 677.21 346.58 677.72 346.74 L 677.15 347.38 C 679.03 347.67 680.87 348.20 682.76 348.56 L 682.14 349.65 C 683.05 349.56 684.86 349.40 685.76 349.32 L 685.14 350.64 C 686.05 350.56 687.89 350.42 688.80 350.34 L 688.09 351.41 C 690.37 351.41 692.55 352.12 694.76 352.62 L 694.17 355.55 L 695.79 353.71 C 696.53 353.62 698.01 353.44 698.75 353.36 C 698.59 353.62 698.29 354.14 698.13 354.40 C 700.36 354.47 702.50 355.14 704.69 355.56 L 704.22 356.59 C 705.70 356.52 707.20 356.46 708.70 356.40 L 708.11 357.43 C 712.49 357.09 716.15 360.04 720.38 360.58 L 720.89 366.15 L 721.98 360.23 C 722.23 362.06 722.75 365.71 723.01 367.54 L 723.84 361.55 C 724.04 362.37 724.44 364.01 724.64 364.83 L 726.02 364.40 C 725.78 364.95 725.30 366.06 725.07 366.62 C 725.40 366.57 726.06 366.47 726.39 366.43 C 726.39 368.05 726.41 369.67 726.45 371.30 C 725.08 371.47 722.35 371.82 720.99 371.99 L 725.75 372.63 C 725.64 373.60 725.40 375.53 725.29 376.49 C 725.05 376.43 724.59 376.31 724.36 376.25 C 724.42 377.11 724.54 378.82 724.60 379.67 L 723.55 379.14 C 723.40 380.77 723.84 382.74 722.36 383.93 C 722.49 384.41 722.73 385.37 722.85 385.85 L 721.46 385.12 C 721.45 386.59 721.45 388.07 721.46 389.55 L 720.06 389.39 C 720.30 389.94 720.78 391.05 721.02 391.60 L 719.53 391.15 C 720.16 395.69 716.45 399.34 716.53 403.78 L 715.43 403.09 C 715.46 403.94 715.51 405.65 715.54 406.51 L 714.48 406.30 C 714.81 407.96 714.09 408.74 712.32 408.63 C 712.38 409.19 712.48 410.29 712.54 410.85 C 712.02 410.68 710.99 410.33 710.47 410.16 C 710.45 410.47 710.41 411.08 710.39 411.38 C 709.01 411.38 707.64 411.38 706.28 411.40 L 706.88 410.46 C 705.00 410.51 703.14 410.45 701.29 410.45 L 701.84 409.46 C 699.63 409.39 697.42 409.40 695.22 409.27 C 695.38 409.86 695.71 411.06 695.88 411.65 L 694.35 411.19 C 694.44 412.07 694.60 413.83 694.68 414.71 L 693.44 414.02 C 693.47 414.92 693.55 416.72 693.58 417.61 C 693.33 417.52 692.84 417.33 692.59 417.24 C 692.31 419.09 691.78 420.89 691.42 422.73 L 690.50 422.14 C 690.50 423.82 690.81 425.78 689.30 426.98 C 689.47 427.37 689.81 428.16 689.98 428.56 L 688.41 428.14 C 688.47 429.04 688.57 430.84 688.62 431.74 L 687.39 431.09 C 687.45 432.00 687.57 433.81 687.63 434.72 L 686.37 434.12 C 686.44 435.02 686.57 436.83 686.64 437.73 L 685.37 437.10 C 685.44 437.90 685.57 439.51 685.64 440.31 L 680.15 440.98 L 684.83 441.65 C 684.72 442.19 684.51 443.27 684.40 443.81 L 683.37 443.08 C 683.44 444.00 683.58 445.83 683.65 446.75 L 682.38 446.09 C 682.45 447.01 682.58 448.85 682.64 449.76 L 681.36 449.07 C 681.45 449.97 681.63 451.77 681.72 452.67 C 681.37 452.55 680.66 452.33 680.31 452.22 C 680.42 453.10 680.63 454.86 680.74 455.74 L 679.42 455.07 C 679.47 455.99 679.57 457.83 679.62 458.75 L 678.37 458.08 C 678.44 458.89 678.58 460.50 678.65 461.31 L 672.92 461.98 L 677.96 462.67 C 677.78 463.09 677.41 463.94 677.23 464.36 L 671.73 464.97 L 677.04 465.70 C 676.80 466.05 676.33 466.75 676.09 467.11 C 675.25 468.86 674.54 470.68 674.39 472.64 L 673.64 472.16 C 673.40 473.94 672.85 475.65 672.34 477.37 L 666.70 477.89 C 668.24 478.18 671.31 478.75 672.85 479.04 L 665.49 479.97 C 667.10 480.23 670.31 480.75 671.92 481.01 L 664.46 482.01 L 670.87 482.87 C 670.18 483.05 668.82 483.41 668.13 483.60 C 668.34 484.03 668.75 484.90 668.96 485.33 L 662.87 485.90 L 668.94 486.97 C 667.10 487.22 663.40 487.72 661.55 487.97 L 667.83 488.93 C 665.98 489.21 662.29 489.75 660.45 490.03 L 666.51 490.77 C 665.95 490.96 664.83 491.34 664.27 491.52 C 664.31 491.97 664.39 492.86 664.43 493.31 C 662.77 493.46 659.46 493.77 657.80 493.92 L 663.74 494.90 C 663.09 495.05 661.78 495.35 661.13 495.50 L 661.93 496.35 L 657.00 496.86 L 661.29 497.94 C 660.62 498.08 659.29 498.37 658.62 498.51 C 658.63 499.89 657.94 500.60 656.54 500.62 C 656.38 501.31 656.05 502.70 655.88 503.39 L 654.93 497.44 L 654.30 503.91 C 653.90 503.72 653.10 503.32 652.69 503.12 C 653.44 506.92 646.45 506.38 646.71 502.19 L 650.71 507.06 L 648.64 506.14 C 648.44 506.80 648.05 508.11 647.85 508.77 L 646.96 502.50 L 646.03 509.89 C 645.77 508.37 645.24 505.33 644.97 503.81 C 644.72 505.57 644.23 509.07 643.98 510.82 L 642.94 505.07 C 643.99 509.42 642.69 511.26 639.06 510.59 L 639.68 511.98 C 639.28 511.84 638.47 511.57 638.07 511.43 C 636.43 512.13 634.75 512.74 633.08 513.33 C 631.18 514.03 629.24 514.62 627.20 514.55 C 627.31 514.79 627.51 515.27 627.61 515.51 C 626.90 515.50 625.47 515.48 624.75 515.47 C 623.55 516.32 622.04 516.48 620.68 516.90 L 619.98 511.83 C 619.81 513.26 619.48 516.14 619.31 517.58 C 617.56 517.53 615.82 517.48 614.08 517.44 L 614.80 518.62 C 613.24 518.55 611.69 518.48 610.15 518.40 L 610.71 519.54 C 608.82 519.44 606.92 519.60 605.06 519.45 L 605.81 520.64 C 604.27 520.55 602.74 520.46 601.22 520.38 L 601.67 521.56 C 600.18 521.51 598.70 521.46 597.22 521.41 L 597.52 522.34 C 595.03 522.48 592.53 522.54 590.05 522.50 L 590.81 523.56 C 588.92 523.55 587.04 523.46 585.17 523.35 C 585.32 523.62 585.61 524.18 585.75 524.46 C 583.52 524.45 581.29 524.57 579.06 524.48 L 579.81 525.49 C 578.45 525.51 577.11 525.54 575.77 525.59 C 573.73 526.78 571.32 526.54 569.07 526.51 L 569.78 527.59 C 568.24 527.52 566.69 527.45 565.16 527.38 L 565.74 528.47 C 564.27 528.45 562.80 528.44 561.34 528.43 C 561.36 528.70 561.39 529.25 561.41 529.52 C 560.36 529.49 558.27 529.44 557.23 529.41 C 557.32 529.68 557.51 530.23 557.60 530.50 C 556.48 530.49 554.24 530.46 553.13 530.44 L 553.72 531.65 C 552.82 531.57 551.02 531.42 550.12 531.34 C 550.28 531.66 550.59 532.29 550.75 532.61 C 549.82 532.56 547.98 532.48 547.06 532.43 L 547.73 533.97 C 547.13 533.77 545.93 533.35 545.33 533.14 L 545.55 534.96 C 545.10 534.75 544.19 534.34 543.74 534.14 C 543.71 535.63 543.00 536.47 541.59 536.67 C 541.30 538.34 540.74 539.94 540.25 541.56 L 539.06 541.41 C 539.28 541.92 539.72 542.95 539.94 543.46 L 538.66 543.18 C 537.48 547.27 537.15 551.48 537.51 555.73 L 539.81 555.86 C 538.40 556.19 535.56 556.84 534.14 557.16 L 539.97 557.65 L 539.02 558.73 L 540.61 558.51 C 540.55 559.09 540.43 560.26 540.37 560.84 L 542.05 560.35 C 541.81 560.86 541.32 561.87 541.08 562.38 C 542.86 562.07 543.69 562.77 543.56 564.48 C 544.24 564.63 545.60 564.93 546.28 565.08 L 540.94 566.14 L 547.38 566.63 L 542.96 567.79 L 547.70 567.44 C 547.60 568.04 547.39 569.24 547.29 569.83 C 547.69 569.71 548.48 569.46 548.88 569.34 C 549.31 569.81 550.16 570.75 550.58 571.22 C 550.48 571.51 550.28 572.09 550.18 572.38 C 550.99 572.56 552.59 572.93 553.40 573.12 L 547.54 574.08 L 553.87 574.66 C 553.69 575.20 553.34 576.28 553.17 576.82 C 553.74 576.66 554.90 576.34 555.48 576.17 L 555.19 577.61 L 556.45 577.53 L 556.39 578.74 L 557.75 578.78 C 557.60 579.18 557.31 579.99 557.17 580.39 C 557.95 580.56 559.53 580.92 560.32 581.10 L 554.96 582.12 L 561.17 582.64 L 557.84 583.86 L 561.76 583.41 C 561.63 583.90 561.37 584.89 561.25 585.38 C 562.69 585.71 564.01 586.44 565.25 587.25 L 559.55 588.03 L 565.88 588.71 C 565.69 589.23 565.33 590.25 565.14 590.76 C 565.58 590.66 566.44 590.45 566.87 590.34 C 567.31 590.88 568.20 591.95 568.64 592.48 L 567.41 593.67 L 570.38 592.98 L 566.40 595.48 L 570.57 594.14 L 570.11 595.40 C 570.74 595.59 572.00 595.98 572.63 596.17 L 566.84 597.05 C 569.88 596.95 574.53 596.72 573.63 600.88 C 574.07 600.69 574.95 600.31 575.40 600.12 L 575.22 601.51 C 575.61 601.60 576.39 601.77 576.78 601.86 L 576.12 603.35 C 576.91 603.54 578.49 603.91 579.29 604.09 L 573.96 605.12 L 580.16 605.64 L 576.85 606.82 L 580.70 606.41 C 580.60 607.01 580.39 608.22 580.28 608.82 C 580.71 608.68 581.57 608.40 581.99 608.27 C 582.75 609.20 583.27 610.26 583.55 611.46 C 584.24 611.62 585.63 611.94 586.32 612.09 L 580.83 613.10 L 587.10 613.67 L 584.30 614.70 L 588.27 614.53 C 587.57 614.99 586.16 615.90 585.46 616.35 C 588.20 615.59 589.56 616.29 589.53 618.46 C 590.24 618.62 591.68 618.95 592.39 619.11 L 586.49 620.07 L 592.87 620.68 C 592.69 621.19 592.33 622.21 592.15 622.72 C 592.55 622.65 593.35 622.51 593.75 622.44 C 594.35 622.91 595.55 623.86 596.15 624.34 L 590.67 625.00 L 596.90 625.72 C 596.70 626.21 596.31 627.20 596.11 627.70 C 596.60 627.60 597.58 627.42 598.07 627.33 C 598.98 629.00 599.33 631.17 601.24 632.08 C 601.31 632.67 601.46 633.86 601.53 634.45 C 602.67 634.63 603.57 635.22 604.24 636.24 L 598.84 637.04 L 604.94 637.69 C 604.75 638.14 604.36 639.05 604.17 639.50 C 604.84 639.65 606.16 639.94 606.83 640.09 L 600.39 641.07 L 606.50 641.64 C 606.41 643.38 607.06 644.90 608.02 646.34 L 602.87 647.01 C 604.28 647.18 607.10 647.52 608.51 647.68 C 608.50 653.34 608.70 659.00 608.32 664.65 C 608.07 664.54 607.58 664.32 607.33 664.21 C 607.43 665.72 607.51 667.23 607.58 668.76 L 606.42 668.11 C 606.47 669.63 606.51 671.16 606.56 672.70 L 605.62 672.11 C 605.54 674.37 604.86 676.54 604.42 678.74 L 603.60 678.14 C 603.56 680.25 602.99 682.30 602.41 684.32 L 596.77 684.98 L 602.00 685.67 C 601.82 686.10 601.45 686.94 601.26 687.36 L 595.95 687.97 L 600.93 688.68 C 600.78 689.07 600.47 689.86 600.32 690.25 L 599.68 690.64 C 599.25 694.55 596.49 697.81 596.49 701.77 L 595.42 701.04 C 595.47 701.97 595.58 703.84 595.64 704.77 C 595.32 704.60 594.69 704.27 594.37 704.10 C 594.43 705.01 594.55 706.82 594.61 707.73 L 593.41 707.07 C 593.45 707.97 593.54 709.78 593.58 710.68 L 592.38 710.13 C 592.43 711.02 592.55 712.80 592.60 713.69 L 591.34 713.09 C 591.44 713.89 591.63 715.49 591.73 716.30 C 590.39 716.47 587.72 716.82 586.39 716.99 L 590.86 717.65 C 590.73 718.19 590.46 719.25 590.32 719.79 L 589.38 719.09 C 589.44 720.01 589.56 721.87 589.62 722.80 L 588.32 722.13 C 588.43 723.04 588.66 724.86 588.78 725.77 L 587.44 725.10 C 587.48 726.63 587.54 728.17 587.59 729.71 L 586.42 729.12 C 586.47 730.65 586.53 732.20 586.59 733.74 L 585.48 733.10 C 585.51 735.03 585.53 736.97 585.52 738.92 C 585.99 738.72 586.93 738.31 587.40 738.11 L 587.31 739.74 C 587.81 739.63 588.82 739.40 589.32 739.28 L 589.91 745.60 L 590.97 739.22 C 591.22 740.99 591.71 744.54 591.96 746.32 C 592.23 744.78 592.77 741.72 593.04 740.19 L 593.42 742.80 C 593.96 742.63 595.04 742.28 595.58 742.11 L 595.21 743.69 C 595.75 743.60 596.84 743.44 597.39 743.36 C 597.40 745.74 597.34 748.12 597.29 750.51 L 596.42 750.14 C 596.46 751.67 596.50 753.21 596.55 754.76 L 595.48 754.11 C 595.53 756.03 595.78 758.11 594.56 759.77 C 594.56 760.51 594.54 761.98 594.54 762.71 L 593.37 762.10 C 593.45 763.03 593.60 764.88 593.67 765.81 L 592.55 765.06 C 593.36 768.63 590.18 771.27 590.50 774.75 L 589.38 774.07 C 589.45 774.88 589.60 776.50 589.67 777.30 C 588.35 777.47 585.73 777.81 584.42 777.98 L 589.14 778.74 L 588.87 779.50 L 587.45 779.12 C 587.46 779.94 587.49 781.56 587.50 782.38 L 586.14 782.35 L 586.96 783.80 L 585.08 783.30 C 585.31 783.90 585.75 785.11 585.98 785.72 L 584.14 785.24 C 584.32 785.77 584.69 786.81 584.87 787.33 L 578.80 787.90 L 584.50 788.92 C 581.55 789.72 578.48 789.43 575.47 789.30 C 575.54 789.08 575.67 788.66 575.74 788.44 C 574.16 788.62 572.60 788.45 571.25 787.63 C 569.94 787.55 568.63 787.50 567.34 787.47 L 567.82 786.44 C 566.34 786.45 564.87 786.47 563.40 786.48 L 563.86 785.56 C 560.28 786.20 558.98 784.38 559.99 780.09 L 559.38 784.84 C 558.83 784.71 557.72 784.45 557.17 784.32 L 557.93 783.36 C 557.00 783.43 555.15 783.58 554.23 783.65 L 554.96 782.45 C 554.00 782.48 552.06 782.53 551.10 782.56 L 551.97 781.36 C 551.04 781.44 549.18 781.59 548.24 781.66 L 548.93 780.40 C 548.01 780.46 546.18 780.56 545.27 780.62 L 545.92 779.41 C 545.02 779.46 543.23 779.54 542.33 779.59 L 542.89 778.43 C 542.00 778.45 540.23 778.50 539.34 778.53 L 539.83 777.61 C 537.95 777.33 536.13 776.79 534.28 776.41 L 534.83 775.34 C 533.96 775.42 532.20 775.59 531.32 775.67 L 531.95 774.43 C 531.05 774.47 529.25 774.55 528.35 774.58 C 528.46 774.31 528.69 773.76 528.80 773.49 C 525.64 773.98 523.36 771.08 520.22 771.49 L 520.88 770.38 C 519.95 770.44 518.11 770.57 517.19 770.63 L 517.87 769.27 C 516.97 769.39 515.18 769.64 514.28 769.77 L 514.97 768.47 C 514.02 768.49 512.12 768.52 511.17 768.54 L 511.96 767.39 C 511.05 767.44 509.24 767.55 508.33 767.60 L 508.88 766.41 C 507.99 766.44 506.23 766.51 505.34 766.54 L 505.84 765.52 C 502.70 765.96 500.42 763.18 497.33 763.44 L 497.63 760.18 C 497.05 764.68 493.63 761.22 491.28 761.41 L 491.93 760.43 C 491.02 760.47 489.18 760.55 488.27 760.58 L 488.93 759.41 C 488.03 759.45 486.23 759.54 485.33 759.58 L 485.86 758.38 C 485.00 758.43 483.28 758.53 482.42 758.59 L 482.79 757.60 C 480.93 757.42 479.17 756.80 477.38 756.36 L 477.76 755.26 C 477.26 755.36 476.24 755.56 475.73 755.66 L 475.79 754.31 L 474.26 754.76 L 474.80 753.43 C 472.63 753.52 470.46 753.52 468.29 753.55 L 468.87 752.43 C 467.72 752.47 465.41 752.54 464.26 752.57 C 464.42 752.31 464.73 751.79 464.88 751.54 C 461.33 752.20 458.67 749.23 455.21 749.45 L 455.85 746.46 C 454.80 748.23 453.27 748.92 451.24 748.51 L 451.97 747.37 C 451.04 747.45 449.19 747.60 448.27 747.67 C 448.43 747.35 448.76 746.70 448.92 746.37 C 448.01 746.44 446.20 746.59 445.29 746.66 C 445.43 746.34 445.72 745.70 445.87 745.38 C 444.97 745.43 443.17 745.53 442.27 745.58 L 442.91 744.40 C 442.01 744.44 440.22 744.53 439.32 744.57 L 439.90 743.43 C 438.99 743.45 437.17 743.50 436.26 743.52 L 436.93 742.40 C 436.05 742.44 434.29 742.52 433.42 742.57 C 433.50 742.30 433.65 741.75 433.73 741.48 C 430.61 741.95 428.36 739.08 425.25 739.48 L 425.81 738.32 C 424.92 738.42 423.16 738.62 422.28 738.72 L 422.91 737.39 C 422.00 737.45 420.18 737.58 419.27 737.64 L 419.94 736.58 C 416.38 737.27 415.06 735.51 415.98 731.28 L 415.37 735.91 C 414.98 735.76 414.21 735.45 413.82 735.30 C 411.31 734.16 408.33 732.50 405.36 732.61 C 405.49 732.30 405.74 731.69 405.87 731.39 C 404.96 731.45 403.16 731.58 402.25 731.64 L 402.95 730.45 C 402.02 730.47 400.15 730.52 399.21 730.54 L 399.93 729.41 C 399.03 729.44 397.22 729.51 396.31 729.54 L 396.87 728.41 C 396.00 728.44 394.26 728.48 393.39 728.51 L 393.64 727.06 C 393.08 727.30 391.95 727.77 391.38 728.01 L 391.82 726.38 C 390.92 726.45 389.14 726.58 388.24 726.65 L 388.84 723.36 L 387.17 725.24 C 386.68 725.40 385.71 725.72 385.23 725.88 L 385.93 722.59 C 385.01 723.16 383.16 724.32 382.24 724.89 L 382.88 723.45 C 381.40 723.46 379.92 723.47 378.45 723.49 L 378.74 722.57 C 376.66 722.27 374.65 721.61 372.59 721.23 C 372.62 721.06 372.67 720.71 372.69 720.53 C 367.61 720.28 363.26 716.80 358.23 716.49 L 358.85 715.36 C 357.94 715.44 356.10 715.59 355.18 715.66 L 355.93 714.36 C 355.03 714.43 353.22 714.59 352.32 714.66 L 352.87 713.39 C 351.98 713.45 350.20 713.56 349.32 713.61 L 349.90 712.56 C 346.31 713.24 345.00 711.41 345.98 707.08 L 345.37 711.91 C 344.85 711.74 343.81 711.41 343.29 711.24 L 343.87 710.38 C 342.98 710.43 341.21 710.51 340.33 710.55 L 340.89 709.42 C 339.99 709.44 338.20 709.50 337.31 709.53 L 337.87 708.38 C 336.99 708.43 335.23 708.52 334.35 708.57 L 334.91 707.43 C 334.03 707.45 332.28 707.50 331.40 707.53 C 331.49 707.27 331.66 706.75 331.74 706.48 C 327.62 706.74 324.34 703.41 320.25 703.46 L 320.85 702.34 C 320.06 702.42 318.48 702.58 317.70 702.66 L 317.02 697.00 L 316.34 701.92 C 315.85 701.74 314.86 701.38 314.36 701.20 L 314.67 700.09 C 314.17 700.29 313.16 700.67 312.66 700.86 L 312.14 694.78 C 311.82 696.29 311.19 699.31 310.88 700.82 L 310.73 698.48 C 308.91 698.59 307.10 698.44 305.29 698.53 L 305.83 697.39 C 304.32 697.45 302.80 697.52 301.29 697.59 L 301.89 696.46 C 300.41 696.47 298.94 696.48 297.47 696.51 L 297.75 695.62 C 295.92 695.34 294.16 694.78 292.37 694.37 L 292.70 693.14 C 292.20 693.32 291.18 693.67 290.68 693.85 L 290.08 688.23 L 289.18 693.51 C 289.02 693.02 288.68 692.03 288.52 691.53 L 287.52 691.26 L 287.34 690.10 L 285.19 690.19 C 286.56 689.83 289.30 689.12 290.67 688.76 L 285.35 688.46 C 285.68 685.13 284.81 681.54 286.55 678.49 C 287.19 677.16 287.55 675.72 287.49 674.25 L 288.60 674.90 C 288.55 674.09 288.45 672.46 288.41 671.65 L 294.23 671.13 C 292.74 670.78 289.76 670.07 288.27 669.72 L 290.63 669.74 C 290.55 668.98 290.39 667.46 290.31 666.69 L 296.12 666.02 L 291.14 665.35 C 291.29 664.81 291.58 663.72 291.72 663.17 L 292.58 663.95 C 292.56 663.06 292.50 661.27 292.48 660.37 L 293.83 660.73 C 293.66 660.11 293.31 658.87 293.14 658.25 L 296.30 658.85 L 294.66 657.28 C 294.58 656.54 294.43 655.05 294.36 654.30 C 294.67 654.44 295.31 654.72 295.63 654.86 C 295.57 653.96 295.47 652.17 295.42 651.27 L 296.43 651.95 C 295.76 648.50 297.45 647.17 301.51 647.95 L 297.40 647.49 C 297.80 646.48 298.20 645.48 298.59 644.48 C 299.27 644.09 299.97 643.71 300.66 643.34 C 302.34 643.55 304.04 643.63 305.74 643.62 L 305.15 644.61 C 307.05 644.42 308.96 644.51 310.87 644.40 L 310.05 645.62 C 311.81 645.51 313.58 645.39 315.35 645.27 L 315.98 650.38 L 316.71 644.72 L 322.25 643.97 L 316.97 643.36 C 317.19 642.89 317.63 641.96 317.85 641.50 L 318.96 641.52 L 318.09 639.62 C 318.41 639.66 319.06 639.74 319.38 639.77 C 319.40 638.18 319.62 636.62 320.38 635.22 C 320.43 633.90 320.47 632.58 320.51 631.26 L 321.58 631.88 C 321.54 630.73 321.46 628.44 321.42 627.29 C 321.71 627.44 322.30 627.74 322.59 627.89 C 322.56 626.95 322.48 625.08 322.45 624.14 L 323.56 624.91 C 323.55 623.44 323.54 621.98 323.54 620.52 L 324.56 620.80 C 324.57 619.97 324.58 618.32 324.58 617.50 L 325.44 617.72 C 325.76 615.88 326.27 614.10 326.58 612.27 L 327.60 612.91 C 327.54 612.00 327.44 610.19 327.38 609.29 L 328.63 609.94 C 328.55 609.13 328.39 607.50 328.31 606.69 C 329.70 606.52 332.49 606.17 333.88 606.00 L 328.54 605.33 C 330.98 604.07 330.91 600.99 331.59 598.67 L 337.18 598.02 L 332.06 597.34 C 332.25 596.83 332.63 595.82 332.81 595.31 L 333.97 595.68 C 333.72 595.10 333.23 593.95 332.98 593.38 L 334.66 593.81 C 334.57 593.03 334.40 591.47 334.31 590.69 L 340.26 590.03 L 334.73 589.24 C 335.16 588.86 336.03 588.08 336.47 587.70 L 341.08 586.96 L 335.33 586.17 C 335.96 585.97 337.22 585.56 337.85 585.35 C 337.63 584.84 337.19 583.82 336.97 583.31 L 338.58 583.86 C 338.55 583.03 338.50 581.38 338.48 580.55 L 339.91 580.56 L 339.27 578.84 C 339.68 578.77 340.50 578.65 340.90 578.58 L 339.97 577.67 L 345.95 577.11 L 340.20 576.02 C 342.02 575.76 345.66 575.24 347.48 574.98 L 341.44 574.21 C 342.07 574.01 343.31 573.62 343.93 573.43 L 343.11 572.67 L 349.16 572.09 L 343.54 571.10 C 344.40 570.91 346.12 570.52 346.98 570.32 C 346.73 569.92 346.24 569.11 346.00 568.71 L 352.61 568.07 L 346.60 567.12 C 347.29 566.96 348.68 566.63 349.37 566.47 C 349.40 565.09 350.09 564.40 351.46 564.38 C 351.63 563.68 351.95 562.28 352.12 561.59 L 353.07 567.50 L 353.70 560.99 C 354.11 561.23 354.92 561.73 355.32 561.97 C 355.52 561.11 355.91 559.38 356.10 558.51 L 357.08 564.16 L 357.69 557.95 L 358.43 558.98 C 358.62 558.34 359.01 557.07 359.21 556.43 L 359.99 562.56 C 360.25 560.71 360.77 557.02 361.03 555.17 L 362.11 561.13 L 362.66 555.09 C 363.10 555.27 363.98 555.64 364.41 555.83 C 364.59 555.15 364.96 553.81 365.14 553.14 L 365.99 559.58 L 366.96 552.16 C 367.25 553.66 367.83 556.66 368.12 558.16 L 368.61 552.61 C 370.33 552.12 372.05 551.54 373.85 551.40 L 373.34 550.40 C 374.21 550.46 375.96 550.58 376.84 550.64 C 376.72 550.33 376.47 549.72 376.35 549.41 C 377.24 549.46 379.01 549.55 379.90 549.60 L 379.37 548.51 C 380.84 548.52 382.32 548.54 383.81 548.57 L 383.34 547.44 C 384.83 547.48 386.34 547.53 387.84 547.59 L 387.31 546.50 C 389.34 546.56 392.03 545.75 392.96 548.45 L 392.19 545.45 C 392.95 545.46 394.47 545.49 395.23 545.50 C 396.60 545.05 397.87 544.32 399.31 544.02 L 400.02 549.11 C 400.18 547.68 400.51 544.84 400.67 543.41 C 402.40 543.46 404.13 543.52 405.87 543.58 L 405.29 542.47 C 407.16 542.54 409.03 542.42 410.92 542.56 L 410.21 541.44 C 412.12 541.52 414.02 541.42 415.93 541.56 L 415.17 540.62 C 416.09 540.51 417.94 540.29 418.86 540.18 L 418.19 541.66 L 421.44 541.29 L 418.50 539.77 C 420.59 539.58 422.69 539.51 424.79 539.56 C 424.68 539.33 424.46 538.85 424.35 538.62 C 426.50 538.52 428.66 538.49 430.82 538.58 C 430.68 538.31 430.41 537.77 430.27 537.50 C 432.12 537.49 433.98 537.51 435.85 537.57 C 435.73 537.38 435.49 537.02 435.37 536.84 C 438.76 535.53 442.25 534.93 445.88 535.61 L 445.26 534.46 C 446.75 534.49 448.25 534.54 449.75 534.61 C 449.66 534.36 449.49 533.85 449.41 533.60 C 452.09 533.75 454.67 532.91 457.20 532.11 C 458.84 531.88 461.27 530.05 461.64 533.39 L 461.39 530.57 C 461.97 530.56 463.13 530.54 463.71 530.53 L 463.53 529.33 C 465.17 530.05 468.46 531.51 470.11 532.24 C 469.00 531.10 466.79 528.81 465.68 527.67 L 472.51 527.11 L 466.21 526.04 C 468.06 525.77 471.76 525.25 473.61 524.98 L 467.50 524.22 C 468.10 523.99 469.31 523.55 469.92 523.32 L 468.99 521.55 C 469.39 521.61 470.20 521.73 470.61 521.79 C 470.55 520.91 470.44 519.13 470.38 518.25 L 471.51 518.92 C 471.52 514.32 471.56 509.73 471.50 505.14 C 470.98 505.33 469.94 505.71 469.42 505.91 L 469.74 504.23 C 469.21 504.36 468.16 504.62 467.63 504.76 L 467.69 503.81 C 466.30 502.33 464.99 500.78 463.77 499.20 C 462.90 497.61 461.53 496.42 459.90 495.69 L 465.11 494.98 L 459.03 494.28 L 460.02 493.20 L 458.19 493.56 C 458.34 493.09 458.64 492.14 458.78 491.67 C 457.38 491.20 456.06 490.52 454.81 489.76 L 460.48 488.97 L 454.06 488.26 C 454.28 487.85 454.71 487.02 454.93 486.61 C 453.15 486.92 452.32 486.22 452.42 484.53 C 451.73 484.37 450.33 484.05 449.64 483.89 L 455.51 482.93 L 449.13 482.32 C 449.31 481.81 449.68 480.79 449.86 480.29 C 449.37 480.39 448.38 480.59 447.89 480.69 C 447.26 479.59 446.75 478.45 446.36 477.26 L 445.00 477.69 L 445.82 476.10 L 444.15 476.59 C 444.31 476.11 444.62 475.16 444.77 474.68 C 443.29 474.35 442.05 473.48 440.76 472.77 L 446.26 471.96 L 440.01 471.29 L 441.17 470.19 L 439.86 470.56 C 439.15 468.74 437.62 467.50 435.89 466.70 L 441.23 465.96 L 434.75 465.30 L 438.48 464.14 L 434.25 464.57 C 434.36 463.97 434.60 462.77 434.71 462.18 C 434.28 462.32 433.40 462.61 432.96 462.76 C 432.22 461.79 431.70 460.72 431.39 459.55 C 430.72 459.39 429.38 459.07 428.71 458.91 L 433.98 457.86 L 427.87 457.38 L 431.16 456.02 L 427.30 456.65 L 427.77 455.24 L 426.15 455.49 C 426.32 455.03 426.66 454.11 426.84 453.64 C 424.69 453.57 422.81 451.42 422.46 449.39 L 420.48 449.89 L 424.28 447.98 L 420.28 448.74 C 420.40 448.19 420.64 447.09 420.76 446.53 C 419.01 446.88 418.24 446.21 418.46 444.53 C 417.75 444.37 416.31 444.05 415.60 443.89 L 421.37 442.93 L 415.09 442.31 C 415.27 441.92 415.65 441.13 415.84 440.74 C 413.99 440.44 412.11 439.34 412.47 437.20 L 411.14 437.51 C 411.31 437.06 411.64 436.17 411.80 435.72 C 409.61 435.95 409.48 434.27 409.42 432.68 C 408.11 432.53 407.45 431.79 407.43 430.46 C 406.94 430.29 405.97 429.94 405.48 429.77 L 411.50 429.02 C 409.67 428.76 406.01 428.22 404.18 427.96 L 410.40 426.91 L 404.06 426.31 C 404.28 425.83 404.73 424.86 404.96 424.37 L 403.60 424.64 C 403.29 421.51 401.65 418.73 401.06 415.67 L 406.04 415.00 C 404.67 414.83 401.95 414.49 400.58 414.32 C 400.54 409.74 400.47 405.16 400.68 400.58 L 404.88 400.13 C 403.96 399.95 402.13 399.58 401.21 399.40 C 401.36 397.99 401.49 396.58 401.61 395.17 L 402.56 395.94 C 402.41 394.05 402.54 392.18 402.45 390.30 L 403.58 390.86 C 403.52 389.35 403.48 387.84 403.44 386.34 L 404.41 386.86 C 404.43 385.27 404.56 383.68 405.36 382.28 C 405.43 381.58 405.56 380.19 405.63 379.49 L 406.91 379.57 C 406.68 379.02 406.22 377.92 405.99 377.37 L 407.38 377.86 C 407.39 375.62 408.18 373.50 408.60 371.33 L 409.56 371.90 C 409.54 371.02 409.50 369.27 409.48 368.39 L 410.84 368.72 C 410.67 368.13 410.34 366.94 410.17 366.35 L 413.66 366.64 L 411.76 365.09 C 411.62 364.65 411.35 363.76 411.22 363.31 L 412.44 363.84 C 412.49 362.05 413.14 360.38 413.60 358.67 L 419.11 358.01 L 414.04 357.34 C 414.24 356.86 414.64 355.89 414.83 355.41 L 415.94 355.61 C 415.71 355.06 415.25 353.96 415.02 353.40 L 416.54 353.90 C 416.53 353.03 416.50 351.29 416.49 350.42 L 417.65 350.72 C 417.58 350.20 417.44 349.18 417.38 348.66 L 418.66 348.37 C 418.58 347.62 418.43 346.12 418.35 345.37 L 419.40 345.81 C 419.43 344.56 419.74 343.40 420.33 342.32 C 420.41 341.61 420.57 340.19 420.65 339.49 L 421.87 339.61 C 421.67 339.00 421.27 337.78 421.07 337.17 L 422.65 337.85 C 422.56 336.95 422.40 335.16 422.32 334.27 L 423.66 334.83 C 423.57 333.93 423.41 332.13 423.32 331.22 L 426.60 331.87 L 424.79 330.22 C 424.69 329.48 424.49 328.01 424.39 327.27 C 424.70 327.40 425.32 327.67 425.63 327.80 C 425.53 326.27 425.45 324.75 425.39 323.22 L 426.50 323.94 C 426.43 321.04 426.62 318.15 426.64 315.26 C 425.89 315.39 424.41 315.64 423.67 315.77 L 423.03 309.99 L 422.34 314.94 C 421.90 314.79 421.03 314.49 420.60 314.35 L 420.15 308.77 C 419.84 310.28 419.21 313.30 418.89 314.81 L 418.65 312.29 C 418.08 312.42 416.94 312.67 416.37 312.80 L 416.85 311.62 C 416.03 311.43 414.38 311.06 413.56 310.87 L 419.37 309.94 L 413.57 309.34 C 413.55 308.01 413.53 306.69 413.50 305.37 L 414.56 305.77 C 414.51 304.25 414.47 302.74 414.42 301.23 L 415.61 301.97 C 415.54 301.04 415.41 299.17 415.34 298.24 C 415.63 298.40 416.21 298.72 416.50 298.89 C 415.72 295.28 417.55 293.98 421.99 294.98 L 416.97 294.34 C 417.20 293.98 417.67 293.25 417.90 292.89 C 418.70 291.13 419.44 289.30 419.51 287.34 L 420.56 287.71 C 420.51 286.25 420.49 284.80 420.48 283.35 L 421.64 283.84 C 421.58 282.96 421.45 281.19 421.39 280.31 L 422.61 280.90 C 422.55 279.98 422.43 278.16 422.37 277.24 L 423.60 277.92 C 423.55 277.08 423.43 275.39 423.38 274.55 L 428.57 274.21 L 424.27 273.25 L 424.53 271.24 C 424.77 271.39 425.26 271.69 425.50 271.83 C 425.63 270.33 425.82 268.84 426.08 267.37 L 427.15 273.28 C 427.26 271.67 427.47 268.45 427.58 266.84 C 428.11 266.50 429.16 265.83 429.69 265.49 M 453.18 326.47 C 453.34 326.99 453.67 328.03 453.83 328.55 L 452.17 328.30 C 452.36 328.90 452.74 330.09 452.93 330.69 L 451.34 330.19 C 451.42 331.05 451.59 332.76 451.68 333.62 L 450.41 333.16 C 450.44 334.00 450.51 335.69 450.54 336.53 L 449.09 336.39 C 449.32 336.94 449.77 338.06 449.99 338.62 L 448.49 338.16 C 448.47 339.60 448.45 341.05 448.43 342.50 L 447.16 342.38 C 447.35 342.98 447.72 344.17 447.91 344.77 L 446.37 344.14 C 446.44 345.04 446.58 346.84 446.65 347.73 L 445.34 347.14 C 445.43 348.04 445.60 349.84 445.68 350.74 L 444.33 350.14 C 444.43 351.05 444.61 352.86 444.71 353.76 L 443.37 353.12 C 443.44 354.02 443.59 355.84 443.66 356.74 L 440.23 356.21 C 442.15 357.15 442.92 358.63 442.54 360.64 L 441.38 360.18 C 441.43 361.06 441.54 362.82 441.59 363.70 L 440.37 363.12 C 440.44 364.03 440.57 365.84 440.63 366.75 L 439.38 366.09 C 439.45 367.01 439.59 368.84 439.66 369.76 L 438.58 369.12 C 438.57 371.38 437.89 373.54 437.38 375.72 L 434.31 375.26 C 434.97 376.13 436.28 377.86 436.94 378.73 L 433.34 378.14 C 433.98 379.05 435.27 380.87 435.91 381.78 L 432.62 381.08 C 433.20 382.01 434.34 383.85 434.91 384.77 L 433.35 384.11 C 433.44 385.03 433.61 386.87 433.69 387.78 L 432.47 387.10 C 432.46 388.58 432.47 390.07 432.47 391.57 L 431.14 391.34 C 431.33 391.90 431.69 393.03 431.88 393.59 L 428.18 393.41 C 430.20 394.26 430.99 395.72 430.55 397.78 L 429.38 397.13 C 429.46 398.69 429.55 400.26 429.64 401.84 L 428.46 401.06 C 428.59 404.67 428.59 408.28 428.46 411.89 L 429.57 411.31 C 429.53 412.16 429.47 413.88 429.43 414.73 L 431.82 414.88 C 430.35 415.20 427.42 415.82 425.95 416.14 L 431.98 416.67 L 431.04 417.45 C 431.66 417.63 432.92 418.00 433.54 418.18 L 427.46 419.05 L 433.95 419.70 C 433.73 420.19 433.29 421.17 433.07 421.66 C 433.51 421.60 434.38 421.47 434.82 421.41 C 435.30 421.92 436.24 422.96 436.71 423.48 L 435.03 424.69 L 438.56 424.06 L 434.51 426.07 L 438.68 425.24 C 438.58 425.80 438.36 426.93 438.26 427.50 C 439.98 427.10 440.75 427.76 440.54 429.47 C 441.24 429.63 442.63 429.93 443.33 430.08 L 437.88 431.13 L 444.42 431.65 L 439.83 432.79 L 444.79 432.46 C 444.64 432.96 444.34 433.96 444.20 434.46 C 445.87 434.12 446.66 434.79 446.59 436.47 C 447.29 436.63 448.68 436.95 449.38 437.11 L 443.43 438.07 L 449.93 438.70 C 449.72 439.12 449.30 439.98 449.08 440.41 C 450.80 440.09 451.63 440.77 451.60 442.46 C 452.29 442.62 453.68 442.95 454.38 443.11 L 448.41 444.07 L 454.86 444.68 C 454.69 445.19 454.33 446.22 454.15 446.73 C 454.57 446.64 455.41 446.47 455.84 446.38 C 456.31 446.90 457.25 447.93 457.72 448.44 L 455.98 449.74 L 459.50 449.08 L 455.38 451.44 L 459.61 450.20 C 459.55 450.86 459.42 452.18 459.35 452.84 C 459.70 452.73 460.39 452.51 460.73 452.41 C 461.26 452.86 462.31 453.78 462.83 454.24 L 458.40 455.82 L 464.41 455.14 L 460.18 457.52 L 464.59 456.19 C 464.53 456.84 464.41 458.14 464.35 458.79 C 464.68 458.71 465.35 458.54 465.68 458.46 C 466.30 458.93 467.54 459.87 468.16 460.34 L 462.48 461.00 L 468.96 461.73 C 468.73 462.16 468.28 463.02 468.06 463.44 C 469.94 463.00 470.76 463.68 470.52 465.47 C 471.23 465.63 472.65 465.93 473.36 466.09 L 467.92 467.13 L 474.20 467.64 L 470.76 468.84 L 474.79 468.43 C 474.64 468.91 474.36 469.87 474.22 470.35 C 475.67 470.60 476.91 471.47 478.15 472.24 L 472.92 473.04 L 479.18 473.70 L 475.95 474.79 L 479.77 474.44 C 479.63 474.95 479.34 475.96 479.20 476.47 C 480.87 476.12 481.66 476.78 481.58 478.47 C 482.26 478.62 483.63 478.93 484.31 479.09 L 478.86 480.13 L 485.39 480.65 L 480.96 481.74 L 485.71 481.46 C 485.60 482.05 485.39 483.24 485.28 483.84 C 485.71 483.69 486.58 483.38 487.02 483.23 C 487.85 484.16 488.34 485.25 488.49 486.49 C 489.18 486.63 490.58 486.93 491.27 487.07 L 485.93 488.15 L 492.34 488.62 L 487.91 489.93 L 492.63 489.41 L 492.38 490.82 L 494.26 490.68 C 493.30 491.67 491.39 493.66 490.44 494.65 L 493.86 492.45 C 494.50 492.60 495.77 492.90 496.40 493.05 L 491.28 494.26 L 497.03 494.62 C 496.78 495.04 496.29 495.89 496.04 496.31 C 496.90 496.52 498.62 496.94 499.48 497.15 L 493.44 497.99 C 495.29 498.26 498.98 498.80 500.83 499.06 L 494.46 500.02 L 501.81 500.95 C 500.35 501.24 497.43 501.81 495.98 502.10 C 497.39 502.25 500.22 502.54 501.64 502.69 C 501.47 506.68 501.57 510.69 501.52 514.69 L 500.33 514.15 C 500.42 514.95 500.60 516.55 500.69 517.35 L 494.74 517.87 C 496.23 518.25 499.22 519.01 500.71 519.39 L 498.43 519.19 C 498.46 520.05 498.53 521.78 498.56 522.64 L 497.41 522.17 C 497.44 523.28 497.49 525.50 497.51 526.61 C 497.25 526.51 496.71 526.32 496.44 526.22 C 496.43 527.64 496.42 529.06 496.43 530.49 L 495.40 530.21 C 495.43 531.07 495.48 532.80 495.51 533.66 L 494.37 533.15 C 494.43 534.03 494.54 535.78 494.59 536.66 L 493.31 536.14 C 493.42 536.93 493.64 538.52 493.75 539.31 C 492.30 539.45 489.38 539.73 487.93 539.87 C 489.37 540.25 492.26 541.02 493.71 541.40 L 491.42 541.18 C 491.47 541.97 491.57 543.55 491.62 544.33 L 485.78 544.90 L 491.74 545.97 C 489.92 546.23 486.27 546.76 484.45 547.02 L 490.49 547.76 C 489.89 547.97 488.71 548.40 488.11 548.61 L 488.73 549.53 L 483.59 549.65 L 487.62 550.79 C 485.37 552.97 482.49 555.03 479.17 554.49 C 479.30 554.77 479.57 555.34 479.71 555.63 C 478.55 555.57 476.25 555.44 475.09 555.38 L 475.81 556.35 C 475.02 556.47 473.44 556.70 472.65 556.82 L 471.98 551.73 C 471.84 553.18 471.54 556.09 471.39 557.54 C 469.29 557.49 467.20 557.53 465.11 557.45 L 465.80 558.64 C 463.89 558.47 461.95 558.60 460.05 558.42 L 460.88 559.69 C 459.32 559.57 457.77 559.46 456.22 559.35 C 456.33 559.67 456.56 560.29 456.68 560.60 C 454.80 560.54 452.93 560.48 451.07 560.42 L 451.82 561.62 C 450.25 561.55 448.69 561.48 447.12 561.41 L 447.71 562.51 C 445.83 562.46 443.95 562.54 442.08 562.45 L 442.80 563.60 C 441.26 563.53 439.74 563.46 438.21 563.38 C 438.32 563.66 438.54 564.23 438.65 564.51 C 436.82 564.50 434.99 564.48 433.17 564.44 L 433.69 565.61 C 432.19 565.52 430.69 565.44 429.19 565.37 C 429.32 565.65 429.56 566.19 429.69 566.46 C 426.90 566.08 424.26 567.08 421.69 567.94 L 420.97 562.79 C 420.82 564.23 420.50 567.10 420.35 568.54 C 418.88 568.50 417.42 568.50 415.96 568.54 C 414.85 570.21 412.73 569.29 411.12 569.48 L 411.70 570.54 C 409.83 570.46 407.95 570.55 406.10 570.44 L 406.82 571.66 C 405.27 571.56 403.72 571.47 402.19 571.38 C 402.31 571.64 402.55 572.17 402.67 572.44 C 401.91 572.52 400.40 572.68 399.65 572.76 L 398.98 567.85 C 398.82 569.28 398.49 572.15 398.33 573.59 C 396.59 573.53 394.85 573.47 393.12 573.40 L 393.82 574.59 C 392.24 574.52 390.67 574.47 389.10 574.43 L 389.74 575.58 C 388.23 575.52 386.73 575.45 385.24 575.36 C 385.35 575.67 385.58 576.30 385.69 576.61 C 384.79 576.56 382.99 576.46 382.09 576.40 L 382.68 577.60 C 381.81 577.55 380.05 577.45 379.18 577.39 L 379.58 578.88 C 379.01 578.70 377.88 578.35 377.32 578.17 L 377.52 579.74 C 376.96 579.62 375.85 579.39 375.29 579.27 L 375.42 581.27 C 374.23 580.19 371.86 578.04 370.67 576.96 L 374.80 582.41 L 370.33 578.79 L 373.11 582.45 C 372.36 582.45 370.88 582.44 370.14 582.44 C 370.30 582.90 370.63 583.82 370.80 584.29 L 369.32 584.32 L 369.48 585.41 C 367.91 585.53 364.76 585.76 363.19 585.87 L 369.05 586.96 C 367.18 587.22 363.44 587.74 361.56 588.00 L 367.54 588.78 C 366.93 588.97 365.70 589.33 365.09 589.51 L 365.93 590.32 L 359.86 590.90 L 365.76 591.98 C 363.94 592.23 360.29 592.73 358.47 592.98 L 364.79 593.94 C 363.04 594.20 359.53 594.73 357.78 594.99 C 359.30 595.23 362.33 595.71 363.85 595.95 L 361.23 596.44 C 361.40 597.01 361.74 598.15 361.91 598.72 L 360.37 598.15 C 360.44 599.02 360.58 600.76 360.65 601.63 L 359.63 601.16 C 359.74 602.64 359.32 603.93 358.35 605.01 C 358.51 605.42 358.84 606.24 359.01 606.65 L 357.43 606.10 C 357.47 607.00 357.57 608.79 357.61 609.69 L 356.57 609.09 C 357.23 612.21 355.84 613.47 352.42 612.89 C 353.50 613.23 355.65 613.91 356.73 614.25 L 354.62 614.26 C 354.57 616.45 353.78 618.53 353.42 620.68 L 352.36 620.16 C 352.43 620.95 352.58 622.52 352.65 623.30 L 347.46 623.98 L 351.87 624.65 C 351.73 625.17 351.44 626.22 351.30 626.74 L 350.36 626.14 C 350.42 627.02 350.54 628.78 350.60 629.66 L 349.38 629.15 C 349.43 630.03 349.55 631.80 349.61 632.69 L 348.39 632.11 C 348.45 633.02 348.57 634.83 348.63 635.73 L 347.61 635.09 C 347.56 636.70 347.44 638.37 346.59 639.81 C 346.56 640.51 346.50 641.93 346.48 642.63 L 345.40 642.20 C 345.43 643.32 345.48 645.55 345.51 646.66 C 345.25 646.55 344.71 646.32 344.45 646.20 C 344.46 648.01 344.44 649.82 344.40 651.63 L 343.46 651.12 C 343.49 653.30 343.55 655.47 343.42 657.65 C 344.23 657.59 345.86 657.48 346.68 657.42 L 346.14 658.60 C 347.05 658.56 348.88 658.46 349.79 658.41 L 349.01 661.27 C 350.65 657.37 353.99 661.25 356.71 660.67 L 356.13 661.65 C 357.02 661.58 358.79 661.45 359.68 661.38 L 359.14 662.63 C 360.03 662.57 361.81 662.44 362.70 662.37 L 362.13 663.64 C 363.03 663.56 364.84 663.41 365.74 663.34 L 365.06 664.60 C 365.97 664.54 367.79 664.40 368.70 664.33 C 368.57 664.67 368.32 665.33 368.19 665.67 C 369.09 665.58 370.89 665.41 371.79 665.32 L 371.15 666.69 C 372.06 666.59 373.87 666.37 374.78 666.26 L 374.10 667.54 C 375.59 667.52 377.08 667.51 378.58 667.52 L 378.32 668.86 C 378.88 668.67 380.00 668.30 380.56 668.12 L 380.43 671.88 C 381.00 671.24 382.13 669.96 382.69 669.32 L 383.73 669.04 L 383.20 670.72 C 384.06 670.60 385.77 670.34 386.63 670.22 L 386.31 671.67 C 387.18 671.58 388.92 671.39 389.79 671.30 L 389.08 674.28 C 390.20 672.73 391.72 672.11 393.67 672.42 L 393.11 673.60 C 393.99 673.56 395.76 673.49 396.65 673.46 L 396.12 674.59 C 397.01 674.56 398.79 674.49 399.67 674.46 L 399.08 675.60 C 399.97 675.55 401.74 675.44 402.62 675.39 C 402.51 675.70 402.28 676.32 402.17 676.63 C 403.05 676.58 404.80 676.48 405.67 676.43 L 405.07 677.59 C 405.97 677.54 407.77 677.45 408.67 677.40 C 408.54 677.71 408.27 678.32 408.14 678.62 C 409.03 678.58 410.81 678.49 411.70 678.45 L 411.12 679.60 C 412.01 679.56 413.79 679.49 414.68 679.45 L 414.11 680.58 C 415.00 680.56 416.80 680.50 417.70 680.47 L 417.11 681.59 C 418.00 681.56 419.79 681.50 420.68 681.47 L 420.14 682.61 C 421.02 682.57 422.78 682.49 423.65 682.45 L 423.15 683.59 C 424.02 683.56 425.77 683.50 426.64 683.48 L 426.31 684.92 C 426.90 684.69 428.06 684.23 428.64 684.00 L 428.24 685.70 C 429.11 685.58 430.84 685.34 431.70 685.22 L 431.25 686.71 C 432.11 686.59 433.84 686.34 434.71 686.21 L 434.21 687.69 C 435.10 687.58 436.88 687.36 437.77 687.24 L 437.14 688.64 C 438.06 688.57 439.89 688.41 440.80 688.34 L 440.11 691.46 C 441.02 690.86 442.85 689.68 443.76 689.09 L 443.11 690.66 C 444.02 690.57 445.85 690.39 446.76 690.30 L 446.11 691.61 C 447.03 691.56 448.87 691.45 449.80 691.39 L 449.07 694.54 C 450.00 693.95 451.86 692.78 452.79 692.19 L 452.11 693.66 C 453.02 693.58 454.83 693.41 455.74 693.33 L 455.11 694.63 C 456.02 694.56 457.82 694.42 458.73 694.35 L 458.04 695.54 C 458.99 695.52 460.91 695.49 461.86 695.47 L 461.07 696.60 C 461.98 696.56 463.82 696.48 464.74 696.44 L 464.10 697.61 C 464.98 697.56 466.76 697.48 467.65 697.43 L 467.17 698.38 C 469.06 698.64 470.90 699.20 472.77 699.62 L 472.18 702.50 C 473.08 701.90 474.87 700.70 475.76 700.09 L 475.09 701.62 C 476.02 701.55 477.87 701.42 478.80 701.35 L 478.13 702.69 C 479.02 702.58 480.80 702.38 481.69 702.27 L 481.07 703.56 C 481.97 703.53 483.78 703.46 484.69 703.43 L 484.10 704.59 C 484.98 704.55 486.74 704.49 487.62 704.46 L 487.28 705.85 C 487.86 705.67 489.02 705.30 489.60 705.12 L 489.40 708.79 C 490.22 708.10 491.87 706.71 492.69 706.02 L 492.17 707.64 C 493.06 707.57 494.85 707.43 495.75 707.36 L 495.10 708.59 C 495.99 708.56 497.77 708.49 498.65 708.45 L 498.13 709.56 C 498.96 709.56 500.62 709.56 501.46 709.56 L 501.38 710.82 C 501.85 710.68 502.81 710.40 503.29 710.26 L 503.96 716.65 L 504.86 710.34 C 505.02 710.91 505.32 712.06 505.48 712.63 C 506.30 712.56 507.94 712.43 508.76 712.36 L 508.12 713.64 C 509.03 713.57 510.84 713.44 511.74 713.37 L 511.14 716.65 C 512.02 712.27 515.31 715.91 517.76 715.50 L 517.15 716.65 C 518.07 716.56 519.92 716.39 520.84 716.30 L 520.10 717.62 C 521.24 717.56 523.52 717.43 524.67 717.36 C 524.53 717.67 524.27 718.29 524.13 718.60 C 524.98 718.56 526.67 718.50 527.52 718.46 L 527.67 722.53 L 528.70 719.28 C 529.21 719.36 530.24 719.51 530.75 719.59 L 530.11 720.63 C 531.01 720.57 532.81 720.44 533.71 720.38 L 533.14 721.67 C 533.93 721.58 535.52 721.41 536.31 721.32 L 536.98 727.10 L 537.65 722.15 C 538.37 722.31 539.79 722.65 540.50 722.82 L 540.23 723.57 C 541.06 723.57 542.73 723.57 543.57 723.57 L 543.35 724.90 C 543.91 724.69 545.04 724.25 545.61 724.03 L 545.20 725.64 C 546.10 725.56 547.92 725.41 548.82 725.33 L 548.00 728.03 C 549.23 726.66 550.78 726.13 552.65 726.44 L 552.17 727.64 C 553.03 727.58 554.75 727.46 555.61 727.40 L 555.17 728.53 C 556.06 728.53 557.82 728.54 558.71 728.55 C 558.62 727.96 558.45 726.80 558.36 726.22 L 561.46 726.89 L 559.74 725.25 C 559.66 724.58 559.51 723.23 559.44 722.55 C 559.81 722.55 560.55 722.54 560.91 722.54 C 560.68 721.99 560.20 720.90 559.96 720.36 L 561.65 720.81 C 561.56 719.90 561.37 718.10 561.28 717.20 L 562.68 717.85 C 562.59 716.95 562.39 715.15 562.29 714.25 L 565.61 714.83 C 563.78 713.92 563.08 712.48 563.53 710.49 L 564.96 710.55 C 564.72 710.03 564.24 708.99 564.00 708.47 L 565.54 708.88 C 565.53 708.01 565.50 706.26 565.48 705.39 L 566.92 705.67 C 566.69 705.09 566.23 703.94 566.00 703.37 L 567.63 703.83 C 567.56 702.96 567.41 701.21 567.34 700.34 L 568.60 700.85 C 568.56 700.01 568.48 698.32 568.44 697.48 L 569.64 697.70 L 569.35 695.88 C 569.70 695.72 570.41 695.39 570.76 695.23 C 570.59 694.60 570.25 693.32 570.08 692.69 C 571.64 692.53 574.74 692.20 576.29 692.04 L 570.22 691.11 C 570.77 690.95 571.88 690.64 572.43 690.49 C 572.48 688.35 573.10 686.31 573.61 684.27 L 574.61 684.87 C 574.56 683.96 574.46 682.14 574.41 681.23 L 575.62 681.89 C 575.57 680.99 575.47 679.19 575.42 678.29 L 576.61 678.90 C 576.56 678.00 576.45 676.19 576.39 675.29 L 577.55 675.88 C 577.54 674.77 577.52 672.55 577.51 671.44 C 577.80 671.53 578.37 671.69 578.66 671.77 C 578.59 670.88 578.43 669.11 578.36 668.23 L 579.57 668.91 C 579.40 666.98 579.54 665.08 579.45 663.17 L 580.54 663.94 C 580.40 659.64 580.40 655.33 580.54 651.04 L 579.58 651.93 C 579.48 651.35 579.27 650.21 579.17 649.63 L 584.16 648.98 L 578.08 648.29 C 578.29 647.78 578.72 646.75 578.93 646.24 L 577.02 646.83 L 577.88 645.26 L 576.10 645.49 C 576.29 645.03 576.67 644.13 576.86 643.67 C 574.98 643.83 574.23 643.03 574.59 641.27 L 572.70 642.10 L 575.30 639.97 L 572.44 640.83 L 572.65 639.96 C 572.33 639.36 571.71 638.17 571.39 637.57 C 570.69 637.40 569.28 637.05 568.57 636.88 L 574.54 635.93 L 568.05 635.31 C 568.27 634.88 568.69 634.02 568.91 633.59 C 568.43 633.54 567.47 633.45 566.99 633.41 C 566.57 631.74 564.33 631.37 564.47 629.50 L 562.47 629.81 L 566.17 628.46 C 564.92 628.34 562.44 628.09 561.19 627.96 L 567.15 626.84 C 565.45 626.73 562.06 626.49 560.37 626.37 C 560.46 625.92 560.64 625.02 560.73 624.56 C 559.96 624.40 558.42 624.07 557.65 623.90 L 563.18 622.89 L 556.89 622.35 L 559.92 621.16 L 556.24 621.59 C 556.38 621.07 556.67 620.03 556.81 619.52 C 555.21 619.89 554.30 618.45 553.23 617.62 L 554.60 616.41 L 551.50 616.95 L 555.35 615.00 L 551.31 615.75 C 551.42 615.20 551.64 614.10 551.74 613.55 C 550.03 613.85 549.27 613.18 549.45 611.52 C 548.74 611.36 547.33 611.05 546.62 610.89 L 552.43 609.93 L 546.07 609.31 C 546.28 608.88 546.70 608.02 546.91 607.59 C 545.07 607.94 544.25 607.25 544.47 605.52 C 543.77 605.37 542.36 605.07 541.66 604.91 L 547.09 603.87 L 540.92 603.38 L 543.97 602.08 L 540.37 602.63 L 540.69 601.91 C 540.43 601.65 539.91 601.14 539.65 600.89 L 539.46 599.56 C 538.75 599.40 537.32 599.07 536.61 598.90 L 542.28 597.89 L 535.61 597.34 L 540.09 596.19 L 535.18 596.54 C 535.34 596.05 535.66 595.07 535.82 594.58 C 534.07 594.87 533.28 594.19 533.45 592.54 C 532.74 592.37 531.31 592.03 530.60 591.85 L 536.48 591.00 C 534.59 590.74 530.82 590.21 528.93 589.95 L 535.24 588.87 C 533.51 588.74 530.06 588.49 528.33 588.37 C 528.43 587.92 528.64 587.01 528.75 586.56 C 527.96 586.39 526.37 586.06 525.58 585.89 L 531.48 584.92 L 525.10 584.33 C 525.30 583.81 525.68 582.75 525.87 582.23 C 525.38 582.37 524.38 582.64 523.89 582.78 C 523.16 581.78 522.70 580.69 522.49 579.52 C 521.78 579.36 520.36 579.03 519.65 578.86 L 525.50 578.00 C 523.63 577.74 519.88 577.22 518.01 576.96 L 524.15 575.85 C 522.51 575.74 519.22 575.50 517.58 575.39 C 518.34 573.16 514.64 573.66 515.61 571.34 L 513.49 571.93 L 517.76 569.46 L 513.34 570.83 C 513.43 570.17 513.61 568.84 513.70 568.18 C 513.21 568.33 512.22 568.64 511.73 568.80 C 512.05 566.35 508.66 566.19 509.41 563.55 C 508.85 563.38 507.73 563.05 507.17 562.89 L 513.39 561.95 L 507.44 561.34 C 507.46 557.76 507.47 554.19 507.43 550.62 C 508.89 550.47 511.79 550.17 513.25 550.02 L 508.17 549.34 C 508.30 548.58 508.57 547.07 508.70 546.31 L 509.58 546.89 C 509.56 546.01 509.51 544.26 509.49 543.38 L 510.96 543.65 C 510.71 543.08 510.22 541.95 509.97 541.38 L 511.65 541.84 C 511.55 540.96 511.34 539.20 511.23 538.32 C 511.59 538.44 512.31 538.69 512.67 538.82 C 512.59 537.93 512.43 536.16 512.34 535.27 L 513.67 535.86 C 513.59 535.06 513.42 533.47 513.33 532.68 L 518.76 532.04 L 514.07 531.33 C 514.22 530.90 514.52 530.05 514.67 529.63 L 519.88 529.04 L 515.05 528.32 C 515.21 527.91 515.52 527.07 515.68 526.65 L 521.06 526.03 L 516.11 525.35 C 516.27 524.82 516.58 523.76 516.74 523.23 L 517.47 523.92 C 516.70 520.22 518.59 518.91 523.12 520.00 L 517.83 519.30 L 518.02 518.44 L 519.56 518.88 C 519.53 518.04 519.48 516.36 519.46 515.52 L 520.23 515.76 C 521.10 512.33 524.07 510.06 527.31 509.02 L 528.05 513.05 L 528.68 508.35 C 530.07 508.45 531.48 508.53 532.89 508.61 L 532.19 507.39 C 534.10 507.52 536.01 507.40 537.93 507.56 L 537.16 506.27 C 538.41 506.39 539.66 506.54 540.92 506.70 L 540.36 505.82 C 541.37 505.67 543.39 505.37 544.39 505.22 L 544.97 510.05 C 542.20 502.94 548.61 504.75 551.93 504.50 L 551.23 503.44 C 553.13 503.54 555.02 503.39 556.94 503.56 L 556.18 502.37 C 557.71 502.44 559.25 502.52 560.80 502.62 L 560.35 501.48 C 562.21 501.55 564.06 501.40 565.93 501.55 L 565.19 500.39 C 566.73 500.45 568.27 500.52 569.82 500.60 L 569.34 499.47 C 571.20 499.55 573.06 499.40 574.93 499.56 L 574.19 498.36 C 575.72 498.44 577.27 498.53 578.82 498.63 C 578.68 498.34 578.42 497.74 578.28 497.45 C 580.14 497.46 582.00 497.50 583.87 497.56 L 583.20 496.32 C 584.77 496.42 586.34 496.51 587.92 496.61 L 587.22 495.40 C 588.75 495.45 590.28 495.52 591.82 495.61 L 591.33 494.48 C 593.20 494.55 595.05 494.40 596.93 494.55 L 596.20 493.39 C 597.75 493.44 599.30 493.51 600.86 493.59 L 600.30 492.47 C 602.18 492.54 604.04 492.41 605.93 492.55 L 605.18 491.38 C 606.73 491.44 608.28 491.52 609.83 491.61 L 609.33 490.49 C 611.16 490.55 612.99 490.43 614.83 490.57 L 614.29 489.41 C 615.81 489.46 617.34 489.52 618.88 489.58 L 618.27 488.45 C 619.80 488.48 621.34 488.52 622.88 488.57 L 622.26 487.41 C 623.78 487.46 625.31 487.51 626.85 487.56 L 626.31 485.99 C 626.90 486.22 628.09 486.68 628.68 486.91 L 628.40 485.46 C 629.24 485.48 630.94 485.53 631.79 485.55 L 631.72 483.22 C 632.08 484.68 632.81 487.59 633.17 489.04 L 633.66 483.00 L 634.49 483.93 C 634.66 483.32 635.01 482.11 635.18 481.50 L 636.05 487.56 L 636.71 481.10 C 637.13 481.30 637.98 481.69 638.40 481.89 C 638.70 481.20 639.30 479.84 639.60 479.16 L 639.74 478.31 C 640.27 478.41 641.33 478.62 641.86 478.72 C 641.68 478.22 641.31 477.21 641.13 476.70 L 647.58 476.05 L 641.54 475.17 C 642.12 475.00 643.30 474.64 643.89 474.46 L 643.11 473.67 L 648.87 473.12 C 647.45 472.83 644.59 472.25 643.17 471.96 L 650.55 471.03 C 648.94 470.77 645.73 470.26 644.13 470.00 L 651.63 468.97 L 645.79 468.30 L 646.01 467.45 L 647.63 467.87 C 647.55 467.08 647.37 465.49 647.28 464.69 C 648.84 464.52 651.97 464.18 653.53 464.02 L 647.87 463.29 L 647.99 462.42 L 649.60 462.84 C 649.54 461.92 649.43 460.09 649.37 459.17 L 651.89 459.98 C 651.41 459.06 650.45 457.21 649.97 456.28 L 651.38 456.91 C 651.43 454.63 652.10 452.46 652.63 450.27 L 653.61 450.88 C 653.56 449.98 653.45 448.18 653.40 447.27 L 654.42 447.94 C 653.77 444.32 655.59 443.04 659.89 444.10 C 658.49 443.75 655.67 443.06 654.26 442.71 L 656.61 442.77 C 656.53 441.91 656.38 440.17 656.31 439.31 C 656.64 439.43 657.29 439.69 657.62 439.82 C 657.56 438.92 657.45 437.11 657.40 436.21 L 658.48 436.91 C 657.75 433.49 659.40 432.20 663.42 433.04 L 658.28 432.04 C 659.36 431.85 661.53 431.48 662.62 431.29 C 660.74 430.70 660.04 429.42 660.50 427.46 L 661.57 427.82 C 661.57 426.99 661.58 425.34 661.58 424.51 L 662.86 424.60 C 662.67 424.01 662.30 422.81 662.11 422.22 L 663.65 422.84 C 663.56 421.96 663.37 420.19 663.28 419.31 L 664.57 419.91 C 664.53 418.99 664.46 417.16 664.42 416.24 L 667.37 416.92 C 663.31 415.52 667.21 412.08 666.63 409.38 L 667.63 409.81 C 667.57 408.92 667.43 407.12 667.36 406.23 L 670.66 406.88 C 665.77 404.36 670.59 397.36 668.16 393.45 C 667.88 395.10 667.30 398.40 667.01 400.05 L 665.99 392.64 L 665.16 398.92 L 664.58 397.00 C 662.67 396.76 660.94 395.94 659.16 395.32 L 659.90 394.39 C 658.35 394.46 656.80 394.53 655.26 394.60 L 655.89 393.44 C 654.77 393.47 652.51 393.52 651.39 393.54 C 651.45 393.17 651.59 392.43 651.65 392.06 C 651.08 392.30 649.92 392.79 649.34 393.03 L 649.83 391.38 C 648.98 391.44 647.29 391.56 646.44 391.62 L 646.83 390.67 C 645.11 390.77 644.31 390.02 644.42 388.41 C 642.71 388.40 641.02 388.38 639.33 388.35 C 639.45 388.09 639.68 387.57 639.79 387.31 C 638.67 387.38 636.42 387.52 635.29 387.59 C 635.42 387.29 635.66 386.68 635.78 386.37 C 634.27 386.45 632.76 386.53 631.26 386.59 L 631.90 385.38 C 630.98 385.45 629.14 385.57 628.21 385.64 L 628.88 382.34 C 627.83 384.18 626.30 384.93 624.29 384.57 L 624.89 383.38 C 623.98 383.44 622.17 383.57 621.27 383.63 L 621.91 382.39 C 620.99 382.45 619.16 382.57 618.24 382.63 L 618.89 381.36 C 617.98 381.43 616.15 381.58 615.24 381.65 L 615.85 380.32 C 614.96 380.42 613.17 380.60 612.27 380.70 L 612.90 379.39 C 611.99 379.45 610.17 379.58 609.26 379.64 L 609.96 378.45 C 609.02 378.47 607.15 378.52 606.21 378.55 L 606.95 377.41 C 606.05 377.45 604.23 377.53 603.33 377.57 L 603.85 376.63 C 601.95 376.34 600.10 375.81 598.23 375.44 L 598.89 374.41 C 597.96 374.45 596.09 374.54 595.16 374.58 L 595.96 371.61 C 595.05 372.17 593.22 373.28 592.31 373.84 L 592.92 372.58 C 589.32 373.21 588.02 371.37 589.04 367.07 L 588.07 372.73 C 587.87 371.64 587.46 369.46 587.26 368.37 C 586.48 368.95 584.90 370.12 584.11 370.70 L 584.90 369.31 C 583.99 369.41 582.18 369.60 581.27 369.70 L 581.87 368.36 C 580.97 368.43 579.19 368.57 578.29 368.64 L 578.92 367.42 C 578.01 367.46 576.20 367.54 575.29 367.58 L 575.90 366.39 C 575.00 366.44 573.21 366.55 572.31 366.61 L 572.87 365.37 C 571.97 365.44 570.19 365.56 569.30 365.63 L 569.89 364.38 C 568.98 364.44 567.18 364.57 566.28 364.63 L 566.90 363.38 C 565.98 363.45 564.15 363.58 563.23 363.64 L 563.95 362.40 C 563.04 362.47 561.22 362.59 560.31 362.65 C 560.43 362.32 560.69 361.66 560.81 361.33 C 559.92 361.42 558.14 361.59 557.25 361.68 L 557.87 360.38 C 556.95 360.44 555.11 360.55 554.19 360.61 L 554.97 357.61 C 554.04 358.18 552.18 359.31 551.24 359.87 L 551.88 358.36 C 550.96 358.43 549.12 358.57 548.20 358.64 L 548.93 355.53 C 548.01 356.12 546.17 357.31 545.26 357.91 L 545.90 356.39 C 544.98 356.45 543.13 356.56 542.20 356.62 L 542.84 355.29 C 542.06 355.40 540.49 355.61 539.71 355.71 L 539.01 349.76 L 538.36 354.89 C 537.83 354.73 536.76 354.41 536.22 354.26 L 536.93 353.55 C 533.25 354.23 531.95 352.34 533.02 347.90 L 532.13 353.69 C 531.94 353.09 531.55 351.89 531.36 351.29 C 530.61 351.41 529.11 351.65 528.37 351.77 L 528.86 350.42 C 528.03 350.45 526.36 350.51 525.53 350.53 L 525.65 349.18 C 525.09 349.33 523.98 349.61 523.42 349.75 L 523.84 348.46 C 523.01 348.44 521.35 348.41 520.52 348.39 L 520.59 347.14 C 520.03 347.33 518.92 347.71 518.36 347.90 L 518.84 346.40 C 517.92 346.45 516.09 346.55 515.17 346.60 L 516.00 343.66 C 515.06 344.23 513.18 345.37 512.24 345.93 L 512.92 344.59 C 510.63 344.58 508.46 343.87 506.25 343.42 L 506.86 342.36 C 505.95 342.44 504.13 342.58 503.22 342.66 L 503.87 339.49 C 502.96 340.10 501.13 341.30 500.21 341.91 L 500.93 338.67 C 500.01 339.25 498.19 340.40 497.27 340.98 L 497.82 339.32 C 496.92 339.43 495.10 339.66 494.20 339.78 L 494.90 338.42 C 493.77 338.47 491.51 338.56 490.38 338.61 C 490.49 338.30 490.71 337.68 490.82 337.37 C 489.94 337.41 488.19 337.51 487.32 337.55 L 487.89 336.50 C 484.31 337.29 483.00 335.47 483.96 331.03 L 483.38 335.91 C 482.86 335.75 481.81 335.42 481.29 335.25 L 481.84 334.35 C 480.97 334.41 479.21 334.55 478.34 334.61 L 478.87 333.40 C 477.97 333.45 476.18 333.55 475.28 333.60 L 475.95 332.52 C 472.50 333.33 471.18 331.66 471.96 327.49 L 471.39 331.85 C 470.85 331.72 469.76 331.47 469.22 331.35 L 469.91 330.36 C 469.00 330.43 467.19 330.57 466.28 330.64 L 466.90 329.39 C 465.99 329.45 464.17 329.57 463.26 329.63 L 463.91 328.39 C 463.00 328.45 461.17 328.58 460.25 328.64 L 460.90 327.38 C 459.99 327.45 458.17 327.58 457.27 327.65 L 457.90 326.48 C 456.72 326.48 454.36 326.47 453.18 326.47 Z" />
<path fill="#000000" opacity="1.00" d=" M 869.86 370.68 L 869.16 369.48 C 874.67 369.46 880.18 369.39 885.68 369.56 L 885.12 370.66 C 885.92 370.58 887.52 370.43 888.32 370.35 L 888.99 376.09 L 889.66 370.52 C 890.84 372.96 893.95 372.58 895.75 374.26 C 897.31 375.52 898.82 376.93 899.78 378.73 L 900.76 378.22 L 900.23 379.77 L 901.92 379.52 C 901.72 379.98 901.32 380.90 901.12 381.36 C 901.95 381.55 903.62 381.93 904.45 382.12 L 898.37 383.07 L 904.79 383.69 C 904.64 384.21 904.33 385.26 904.18 385.78 L 906.01 385.15 L 905.24 386.14 C 906.69 387.25 907.52 388.85 907.57 390.70 L 908.52 390.50 C 908.50 391.34 908.46 393.03 908.44 393.87 L 909.89 393.49 L 910.15 394.29 L 905.06 395.00 C 909.38 394.02 911.22 395.33 910.56 398.93 L 911.61 398.28 C 911.55 399.19 911.44 400.99 911.38 401.89 L 912.58 401.28 C 912.53 402.15 912.42 403.89 912.37 404.76 C 912.66 404.69 913.23 404.53 913.52 404.45 C 913.49 405.54 913.42 407.70 913.39 408.79 L 914.44 408.37 C 914.49 409.67 914.56 410.97 914.64 412.28 C 915.20 413.54 915.56 414.88 915.76 416.26 C 917.44 421.91 916.14 427.99 916.55 433.82 L 915.36 433.09 C 915.44 434.14 915.60 436.26 915.69 437.32 C 914.24 437.49 911.36 437.82 909.91 437.98 L 915.18 438.73 L 914.95 439.52 L 913.68 439.13 C 913.45 441.71 912.76 444.55 910.23 445.83 L 910.84 446.32 L 904.78 446.92 L 910.34 447.90 C 909.66 448.06 908.31 448.37 907.63 448.53 C 907.57 449.80 906.92 450.52 905.68 450.70 C 905.04 451.59 904.42 452.49 903.81 453.39 L 902.94 447.92 C 902.78 449.57 902.45 452.87 902.28 454.53 C 901.93 454.49 901.23 454.41 900.88 454.37 C 900.24 454.67 898.94 455.27 898.30 455.57 L 898.49 456.57 C 897.64 456.52 895.95 456.43 895.10 456.39 L 895.78 457.72 C 894.88 457.62 893.09 457.41 892.19 457.31 C 892.32 457.65 892.60 458.32 892.73 458.66 C 891.58 458.58 889.28 458.43 888.13 458.35 L 888.76 459.40 C 884.60 459.56 880.44 459.56 876.29 459.32 L 876.67 457.20 L 875.59 457.18 L 875.59 458.66 C 874.75 458.60 873.08 458.47 872.24 458.41 C 872.41 458.15 872.73 457.63 872.89 457.37 C 872.01 457.43 870.24 457.54 869.36 457.60 L 869.63 456.00 C 869.09 456.26 868.00 456.78 867.46 457.04 L 867.87 455.72 C 866.29 455.36 864.01 455.57 864.27 453.20 C 863.84 453.36 862.99 453.67 862.56 453.83 L 862.82 452.23 L 860.98 453.13 L 863.96 449.86 L 859.67 452.46 L 862.92 448.95 L 858.55 451.48 L 862.05 447.88 L 858.37 449.94 C 858.46 449.35 858.63 448.16 858.71 447.57 C 857.91 447.40 856.32 447.07 855.52 446.91 L 861.20 445.92 L 855.12 445.32 L 855.84 444.38 C 855.44 444.32 854.64 444.19 854.24 444.13 L 854.93 442.57 C 854.47 442.47 853.55 442.29 853.08 442.20 L 854.00 440.46 L 852.72 440.55 C 852.18 438.77 851.54 437.01 851.35 435.16 L 850.55 435.68 C 850.79 432.63 848.08 430.34 848.50 427.27 C 848.24 427.33 847.73 427.45 847.47 427.51 C 847.49 426.41 847.53 424.21 847.55 423.11 L 846.35 423.73 C 846.43 422.84 846.58 421.05 846.66 420.16 C 846.37 420.29 845.78 420.56 845.49 420.70 C 845.51 419.82 845.56 418.06 845.58 417.18 L 844.57 417.49 C 844.55 416.07 844.56 414.65 844.59 413.24 C 844.29 413.33 843.71 413.51 843.41 413.60 C 843.46 412.48 843.55 410.23 843.59 409.10 L 842.60 409.72 C 842.40 405.22 842.43 400.72 842.51 396.22 L 843.69 396.87 C 843.57 395.85 843.34 393.82 843.22 392.81 C 844.61 392.60 847.38 392.18 848.77 391.97 L 844.09 391.38 C 844.26 390.88 844.60 389.87 844.77 389.37 L 845.87 389.68 C 845.71 389.19 845.38 388.21 845.22 387.72 L 851.66 387.04 L 845.51 386.21 C 845.98 386.04 846.92 385.69 847.39 385.52 C 847.48 384.00 848.28 383.27 849.81 383.31 C 849.65 382.84 849.33 381.91 849.17 381.45 L 850.89 381.67 L 850.24 380.24 L 855.10 381.59 L 850.88 379.57 L 856.94 379.16 L 852.19 378.26 C 854.99 377.43 856.34 373.44 859.68 374.51 L 859.20 373.39 L 860.39 373.49 L 860.88 372.80 C 862.36 371.77 864.00 371.04 865.85 371.08 L 865.36 370.36 C 866.49 370.44 868.73 370.60 869.86 370.68 Z" />
<path fill="#000000" opacity="1.00" d=" M 888.62 500.71 C 892.98 500.40 897.35 500.38 901.71 500.65 C 901.58 500.89 901.31 501.36 901.17 501.60 C 902.62 501.56 904.07 501.52 905.54 501.50 L 905.37 502.85 C 905.99 502.66 907.23 502.27 907.84 502.08 L 907.07 503.36 C 911.17 503.42 916.39 505.85 913.97 511.56 L 914.86 505.53 C 915.06 506.36 915.45 508.03 915.64 508.86 C 916.10 508.67 917.01 508.31 917.47 508.12 L 917.28 509.80 L 918.80 509.26 L 918.06 510.68 L 919.63 510.34 L 919.36 511.86 L 920.84 511.40 C 920.68 511.90 920.36 512.92 920.20 513.43 C 921.82 513.16 922.63 513.84 922.60 515.47 C 923.16 515.63 924.27 515.95 924.82 516.12 L 918.67 517.07 L 925.14 517.67 L 921.68 521.74 L 926.20 518.24 C 925.91 518.82 925.32 519.96 925.02 520.53 L 926.33 520.49 C 926.91 522.57 927.58 524.65 927.61 526.85 L 928.54 526.31 C 928.50 528.17 928.49 530.03 928.39 531.90 L 929.27 531.35 C 929.63 539.44 929.68 547.55 929.28 555.65 L 928.40 555.10 C 928.50 556.95 928.46 558.81 928.50 560.68 L 927.41 560.17 C 927.46 561.67 927.51 563.19 927.57 564.71 L 926.33 564.15 C 926.41 564.94 926.59 566.53 926.68 567.33 L 921.06 567.95 L 926.31 568.79 C 925.93 569.15 925.16 569.88 924.78 570.24 L 919.77 571.10 L 925.44 571.60 C 923.65 572.92 923.49 575.42 921.78 576.88 C 921.37 578.15 920.47 578.76 919.08 578.68 C 919.31 579.09 919.76 579.91 919.98 580.32 L 913.54 580.91 L 919.43 581.89 C 918.72 582.06 917.30 582.38 916.58 582.55 C 915.94 583.72 915.53 585.01 914.77 586.13 L 913.95 580.85 L 913.28 586.85 L 912.86 586.23 C 911.70 588.20 909.58 589.06 907.62 589.99 L 907.01 584.58 L 906.31 590.39 C 904.31 590.97 902.29 591.60 900.19 591.49 C 900.30 591.70 900.53 592.11 900.64 592.31 C 896.88 592.21 892.78 593.42 889.27 591.62 C 887.56 591.59 885.88 591.46 884.20 591.48 L 884.91 590.34 C 884.10 590.41 882.48 590.56 881.68 590.64 L 881.05 584.66 L 880.11 590.72 C 879.94 590.10 879.60 588.86 879.43 588.24 C 878.92 588.39 877.90 588.69 877.39 588.84 L 877.72 587.17 C 877.22 587.33 876.20 587.64 875.70 587.80 L 875.07 581.31 L 874.11 587.45 C 873.94 586.65 873.59 585.05 873.42 584.24 C 872.84 584.34 871.69 584.54 871.12 584.63 L 872.45 580.57 L 869.68 584.60 L 871.62 579.51 L 868.62 583.71 L 870.87 578.52 L 867.83 582.39 L 869.02 579.05 L 866.91 580.82 C 867.15 580.28 867.63 579.19 867.86 578.64 C 867.02 578.44 865.33 578.05 864.49 577.85 L 870.51 577.00 C 868.67 576.74 865.01 576.23 863.18 575.97 L 869.22 574.89 L 863.11 574.35 C 863.29 573.83 863.65 572.79 863.83 572.27 L 862.07 572.51 L 861.82 571.73 L 866.99 570.97 L 861.35 570.32 C 861.42 569.51 861.57 567.90 861.64 567.10 L 860.37 567.74 C 860.44 566.87 860.57 565.13 860.64 564.26 L 859.68 564.43 C 859.40 559.13 859.64 553.83 859.74 548.53 L 860.55 548.80 C 860.42 545.91 860.48 543.02 860.49 540.13 L 861.54 540.96 C 861.63 535.52 860.71 529.94 862.54 524.71 C 863.86 524.53 866.50 524.16 867.82 523.97 L 862.55 523.35 C 864.10 522.62 864.75 521.36 864.61 519.67 L 870.63 519.05 L 864.46 518.16 C 865.05 517.99 866.23 517.67 866.82 517.51 L 866.01 516.18 L 867.75 516.81 C 867.63 516.20 867.40 514.99 867.29 514.38 L 868.82 514.90 L 868.03 513.35 L 869.34 513.69 C 869.72 511.71 871.53 509.88 873.45 509.36 C 873.61 508.67 873.94 507.28 874.11 506.59 L 875.10 512.60 L 875.67 505.81 C 876.89 506.89 879.33 509.06 880.55 510.14 L 876.43 505.06 L 878.38 505.86 C 878.57 505.25 878.95 504.04 879.14 503.43 L 880.10 509.11 L 880.69 503.14 C 881.17 503.33 882.14 503.70 882.62 503.89 L 882.48 502.39 C 883.32 502.45 885.02 502.58 885.86 502.65 L 885.25 501.50 C 886.13 501.52 887.88 501.56 888.75 501.57 L 888.62 500.71 Z" />
<path fill="#000000" opacity="1.00" d=" M 861.45 631.71 C 876.74 628.55 893.56 636.90 900.07 651.13 C 904.15 659.59 903.80 669.70 900.08 678.23 C 895.12 690.00 891.42 702.90 882.30 712.30 C 870.87 724.19 850.44 724.30 837.90 714.09 C 829.49 707.46 824.65 696.69 825.13 686.01 C 825.26 678.56 828.37 671.66 830.89 664.79 C 834.71 655.13 839.35 645.29 847.42 638.45 C 851.41 635.04 856.29 632.70 861.45 631.71 Z" />
<path fill="#000000" opacity="1.00" d=" M 792.40 745.56 C 802.24 743.31 813.08 745.67 820.85 752.20 C 833.16 762.12 837.85 781.38 829.37 795.17 C 822.32 807.03 812.64 817.37 801.35 825.31 C 787.92 835.12 767.55 831.40 757.17 818.82 C 749.67 810.17 747.14 797.53 750.74 786.67 C 752.69 781.43 755.89 776.76 759.24 772.33 C 765.05 764.84 771.75 758.02 779.30 752.29 C 783.26 749.36 787.52 746.59 792.40 745.56 Z" />
</g>
</svg>
