<svg width="25" height="24" viewBox="0 0 25 24" fill="none" xmlns="http://www.w3.org/2000/svg">
<path d="M8.65385 5.84615C8.65385 3.72198 10.3758 2 12.5 2H18.6538C20.778 2 22.5 3.72198 22.5 5.84615V12C22.5 14.1242 20.778 15.8462 18.6538 15.8462H18.3974C17.9726 15.8462 17.6282 15.5018 17.6282 15.0769C17.6282 14.6521 17.9726 14.3077 18.3974 14.3077H18.6538C19.9284 14.3077 20.9615 13.2745 20.9615 12V5.84615C20.9615 4.57165 19.9284 3.53846 18.6538 3.53846H12.5C11.2255 3.53846 10.1923 4.57165 10.1923 5.84615V6.23077C10.1923 6.6556 9.84791 7 9.42308 7C8.99824 7 8.65385 6.6556 8.65385 6.23077V5.84615Z" fill="#000000"/>
<path fill-rule="evenodd" clip-rule="evenodd" d="M8.65385 8.15385H6.34615C4.22198 8.15385 2.5 9.87583 2.5 12V18.1538C2.5 20.278 4.22198 22 6.34615 22H12.5C14.6242 22 16.3462 20.278 16.3462 18.1538V15.8462V14.3077V12C16.3462 9.87583 14.6242 8.15385 12.5 8.15385H10.1923H8.65385ZM10.1923 9.69231H12.5C13.7745 9.69231 14.8077 10.7255 14.8077 12V14.3077V15.8462V18.1538C14.8077 19.4284 13.7745 20.4615 12.5 20.4615H6.34615C5.07165 20.4615 4.03846 19.4284 4.03846 18.1538V12C4.03846 10.7255 5.07165 9.69231 6.34615 9.69231H8.65385H10.1923Z" fill="#000000"/>
</svg>
