<?xml version="1.0" encoding="UTF-8"?>
<!DOCTYPE svg PUBLIC "-//W3C//DTD SVG 1.1//EN" "http://www.w3.org/Graphics/SVG/1.1/DTD/svg11.dtd">
<!-- Creator: CorelDRAW -->
<svg xmlns="http://www.w3.org/2000/svg" xml:space="preserve" width="100%" height="100%" version="1.1" shape-rendering="geometricPrecision" text-rendering="geometricPrecision" image-rendering="optimizeQuality" fill-rule="evenodd" clip-rule="evenodd"
viewBox="0 0 322.17 419.22"
 xmlns:xlink="http://www.w3.org/1999/xlink"
 xmlns:xodm="http://www.corel.com/coreldraw/odm/2003">
 <g id="Слой_x0020_1">
  <metadata id="CorelCorpID_0Corel-Layer"/>
  <path id="lock.svg" fill="#FABE0D" fill-rule="nonzero" d="M273.64 194.12l39.17 0c5.26,0 9.36,4.68 9.36,9.93l0 205.82c0,5.25 -4.1,9.35 -9.36,9.35l-303.45 0c-5.26,0 -9.36,-4.1 -9.36,-9.35l0 -205.82c0,-5.25 4.1,-9.93 9.36,-9.93l38 0 0 -95.89c0,-53.79 34.5,-98.23 87.71,-98.23l50.29 0c53.79,0 88.29,44.44 88.29,98.23l0 95.89 -0.01 0zm-176.57 0l127.47 0 0 -91.21c0,-29.83 -24.57,-54.97 -54.97,-54.97l-18.13 0c-29.82,0 -54.37,25.14 -54.37,54.97l0 91.21zm36.82 165.47l54.37 0 -13.45 -59.05c9.35,-4.67 15.79,-14.61 15.79,-25.72 0,-16.96 -13.45,-29.83 -29.82,-29.83 -16.37,0 -29.25,12.87 -29.25,29.83 0,11.11 6.44,21.04 15.79,25.72l-13.43 59.05z"/>
 </g>
</svg>
