<?xml version="1.0" encoding="UTF-8"?>
<!DOCTYPE svg PUBLIC "-//W3C//DTD SVG 1.1//EN" "http://www.w3.org/Graphics/SVG/1.1/DTD/svg11.dtd">
<!-- Creator: CorelDRAW -->
<svg xmlns="http://www.w3.org/2000/svg" xml:space="preserve" width="100%" height="100%" version="1.1" shape-rendering="geometricPrecision" text-rendering="geometricPrecision" image-rendering="optimizeQuality" fill-rule="evenodd" clip-rule="evenodd"
viewBox="0 0 17847.03 9999.84"
 xmlns:xlink="http://www.w3.org/1999/xlink"
 xmlns:xodm="http://www.corel.com/coreldraw/odm/2003">
 <g id="Слой_x0020_1">
  <metadata id="CorelCorpID_0Corel-Layer"/>
  <polygon fill="#62B22F" fill-rule="nonzero" points="3430.77,5497.87 4655.34,6302.99 4655.26,7796.74 3425.12,9999.84 "/>
  <polygon fill="#974995" fill-rule="nonzero" points="2415.29,4861.8 3637.13,5569.83 9.88,7772.75 1193.8,5617.99 "/>
  <polygon fill="#EE7024" fill-rule="nonzero" points="8112.83,2826.1 5778.5,2814.46 4654.2,2138.54 3432.18,0 "/>
  <polygon fill="#FBB61B" fill-rule="nonzero" points="3432.18,0 4654.2,2138.54 4656.67,5085.33 3424.77,4708.88 "/>
  <polygon fill="#5A58A3" fill-rule="nonzero" points="-0,2151.59 1197.68,4328.94 1193.8,5617.99 9.88,7772.75 "/>
  <polygon fill="#2188CB" fill-rule="nonzero" points="-0,2151.59 8094.49,7104.24 5774.97,7120.47 1197.68,4328.94 "/>
  <polygon fill="#DA0954" fill-rule="nonzero" points="5778.5,2814.46 8112.83,2826.1 4657.73,4950.18 4654.2,3499.56 "/>
  <path fill="#1B1537" fill-rule="nonzero" d="M12510.21 3165.47c283.98,-258.93 672.74,-389.46 1055.16,-377.47 399.69,-8.11 802.21,19.05 1199.79,-28.22 -86.08,263.88 -260.7,492.48 -377.12,745.07 -286.45,5.29 -573.26,-5.29 -859.36,4.58 -367.95,29.99 -718.61,328.09 -754.6,703.09 334.79,-333.73 858.67,-356.31 1292.58,-246.59 290.69,98.78 549.63,316.79 655.11,610.3 97.37,257.88 113.24,541.16 49.74,808.92 -96.31,367.24 -391.58,651.58 -739.77,785.99 -410.64,154.52 -883.01,162.63 -1291.87,-1.06 -388.06,-158.04 -662.52,-524.93 -756.36,-927.45 -102.73,-358.18 -89.04,-888.42 16.3,-1252.52 90.87,-314.11 269.79,-603.86 510.4,-824.64zm993.42 1398.42c-218.3,-43.23 -464.18,45.7 -577.47,237.69 -205.6,348.39 76.97,868.83 537.96,803.35 503.21,-71.41 633.86,-882.47 39.51,-1041.04zm-3250.5 -901.35c452.27,-111.13 969.44,-78.67 1355.73,203.2 -127.71,206.02 -243.06,419.1 -360.19,631.12 -188.73,-62.8 -372.18,-162.63 -576.44,-157.69 -216.6,-6.71 -451.2,77.96 -574.32,264.23 -131.23,197.2 -137.58,468.13 -9.88,669.22 113.6,189.79 336.91,277.63 548.93,297.39 165.45,-18.7 333.72,-41.98 486.83,-112.19 36.69,-22.93 79.02,-21.87 120.65,-19.05 74.79,213.79 238.48,390.53 303.04,606.78 -416.63,222.61 -913.35,268.11 -1369.49,157.34 -314.32,-92.43 -613.83,-272.34 -793.75,-552.45 -284.69,-436.74 -273.75,-1054.45 53.27,-1465.79 197.21,-265.99 498.83,-439.21 815.62,-522.11zm4957.59 11.29c878.77,-6.35 1757.89,-6.71 2636.31,0 -7.76,834.67 -2.82,1670.05 -2.12,2504.72 -295.63,1.41 -591.61,2.12 -887.23,-0.35 13.75,-547.87 -13.76,-1095.03 3.52,-1641.13 1.42,-42.68 -8.46,-82.19 -29.28,-118.88 -269.87,6 -540.45,6.35 -810.33,-0.35 -16.93,585.61 -3.17,1172.63 -6.7,1758.95 -300.92,5.29 -601.84,2.47 -902.41,1.41 0.36,-835.03 3.89,-1669.7 -1.76,-2504.37z"/>
  <polygon fill="#037F37" fill-rule="nonzero" points="4655.26,7796.74 5774.97,7120.47 8094.49,7104.24 3425.12,9999.84 "/>
 </g>
</svg>
