<?xml version="1.0" standalone="no"?>
<!DOCTYPE svg PUBLIC "-//W3C//DTD SVG 20010904//EN"
 "http://www.w3.org/TR/2001/REC-SVG-20010904/DTD/svg10.dtd">
<svg version="1.0" xmlns="http://www.w3.org/2000/svg"
 width="1078.000000pt" height="1280.000000pt" viewBox="0 0 1078.000000 1280.000000"
 preserveAspectRatio="xMidYMid meet">
<metadata>
Created by potrace 1.15, written by Peter Selinger 2001-2017
</metadata>
<g transform="translate(0.000000,1280.000000) scale(0.100000,-0.100000)"
fill="#000000" stroke="none">
<path d="M5145 12699 c-505 -260 -1279 -603 -1769 -784 -562 -206 -1129 -364
-1721 -479 -121 -24 -762 -131 -1344 -226 -140 -22 -267 -48 -282 -56 l-29
-15 0 -202 c0 -352 60 -1729 105 -2427 17 -252 71 -919 81 -985 26 -187 146
-754 225 -1068 175 -695 331 -1163 605 -1814 141 -335 273 -583 582 -1093 228
-374 394 -619 672 -990 352 -468 746 -876 1317 -1361 647 -551 735 -620 1021
-790 101 -61 224 -137 275 -170 107 -71 392 -213 458 -229 44 -11 51 -9 145
30 184 78 339 156 439 222 55 35 184 115 287 177 249 149 418 281 983 765 379
325 424 368 712 669 377 394 442 472 777 935 270 373 423 613 722 1127 250
432 490 983 716 1645 171 503 408 1514 472 2015 69 536 149 1989 182 3296 6
245 5 257 -12 263 -59 17 -490 95 -814 146 -442 71 -872 148 -1095 196 -640
140 -1262 337 -1900 602 -393 163 -910 399 -1296 592 -283 142 -256 142 -514
9z"/>
</g>
</svg>
