<?xml version="1.0" encoding="UTF-8"?>
<!DOCTYPE svg PUBLIC "-//W3C//DTD SVG 1.1//EN" "http://www.w3.org/Graphics/SVG/1.1/DTD/svg11.dtd">
<!-- Creator: CorelDRAW -->
<svg xmlns="http://www.w3.org/2000/svg" xml:space="preserve" width="100%" height="100%" version="1.1" shape-rendering="geometricPrecision" text-rendering="geometricPrecision" image-rendering="optimizeQuality" fill-rule="evenodd" clip-rule="evenodd"
viewBox="0 0 3788.4 989.83"
 xmlns:xlink="http://www.w3.org/1999/xlink"
 xmlns:xodm="http://www.corel.com/coreldraw/odm/2003">
 <g id="Слой_x0020_1">
  <metadata id="CorelCorpID_0Corel-Layer"/>
  <g>
   <path fill="#0D4384" fill-rule="nonzero" d="M3009.28 7.38l19.67 9.61 -19.79 40.27 -2829.22 -7.32 0.12 -49.88 2829.22 7.32zm0 0l12.19 0.03 7.48 9.58 -19.67 -9.61zm747.61 942.09l-19.78 40.27 -19.68 -9.61 -727.94 -932.48 39.46 -30.66 727.94 932.48zm0 0l31.51 40.36 -51.29 -0.09 19.78 -40.27zm-3727.6 33.58l-24.63 -28.91 24.73 -20.97 3707.82 6.69 -0.1 49.88 -3707.82 -6.69zm0 0l-29.29 -0.05 4.66 -28.86 24.63 28.91zm126.03 -962.02l24.74 -20.97 24.62 28.91 -150.66 933.11 -49.36 -7.94 150.66 -933.11zm0 0l3.39 -21.03 21.35 0.06 -24.74 20.97z"/>
   <polygon id="_1" fill="#FABE0D" points="180,25 3009.22,32.32 3737.16,964.8 29.34,958.11 "/>
  </g>
 </g>
</svg>
