<?xml version="1.0" encoding="UTF-8"?>
<!DOCTYPE svg PUBLIC "-//W3C//DTD SVG 1.1//EN" "http://www.w3.org/Graphics/SVG/1.1/DTD/svg11.dtd">
<!-- Creator: CorelDRAW -->
<svg xmlns="http://www.w3.org/2000/svg" xml:space="preserve" width="100%" height="100%" version="1.1" shape-rendering="geometricPrecision" text-rendering="geometricPrecision" image-rendering="optimizeQuality" fill-rule="evenodd" clip-rule="evenodd"
viewBox="0 0 3390.69 802.99"
 xmlns:xlink="http://www.w3.org/1999/xlink"
 xmlns:xodm="http://www.corel.com/coreldraw/odm/2003">
 <g id="Слой_x0020_1">
  <metadata id="CorelCorpID_0Corel-Layer"/>
  <g>
   <path fill="#A42208" fill-rule="nonzero" d="M2756.3 5.92l19.66 9.62 -19.78 40.26 -2606.19 -5.87 0.12 -49.88 2606.19 5.87zm0 0l12.17 0.03 7.49 9.59 -19.66 -9.62zm602.9 756.73l-19.76 40.26 -19.68 -9.62 -583.24 -747.11 39.44 -30.64 583.24 747.11zm0 0l31.49 40.34 -51.25 -0.08 19.76 -40.26zm-3329.9 34.89l-24.64 -28.91 24.72 -20.97 3310.14 5.37 -0.08 49.88 -3310.14 -5.37zm0 0l-29.3 -0.05 4.66 -28.86 24.64 28.91zm96.07 -776.52l24.74 -20.97 24.62 28.91 -120.71 747.61 -49.36 -7.94 120.71 -747.61zm0 0l3.39 -21.02 21.35 0.05 -24.74 20.97z"/>
   <polygon id="_1" fill="#0D4384" points="150.05,24.99 2756.24,30.86 3339.48,777.97 29.34,772.6 "/>
  </g>
 </g>
</svg>
