<!-- icon666.com - MILLIONS vector ICONS FREE --><svg id="Icons" viewBox="0 0 60 60" xmlns="http://www.w3.org/2000/svg"><path d="m51 30.041a8.009 8.009 0 0 1 -3 .9v7.059h3z"></path><path d="m58 23h-2.173a12.209 12.209 0 0 1 -2.827 5.5v4.5h5z"></path><path d="m58 35h-5v3a2 2 0 0 1 -2 2h-3a2 2 0 0 1 -2-2v-7h-2v16h7a7.009 7.009 0 0 0 7-7z"></path><path d="m9 47h7v-16h-2v7a2 2 0 0 1 -2 2h-3a2 2 0 0 1 -2-2v-3h-5v5a7.009 7.009 0 0 0 7 7z"></path><path d="m30 49a1 1 0 0 0 1-1.009v-7.175a2.809 2.809 0 0 1 -2 0v7.175a1 1 0 0 0 1 1.009z"></path><path d="m30 39a1 1 0 0 0 1-1v-4.033a11.625 11.625 0 0 0 -.593-3.67.427.427 0 0 0 -.814 0 11.625 11.625 0 0 0 -.593 3.67v4.033a1 1 0 0 0 1 1z"></path><path d="m20 48v-19h-2v19a1 1 0 0 0 2 0z"></path><path d="m40 48a1 1 0 0 0 2 0v-19h-2z"></path><path d="m7 28.5a12.232 12.232 0 0 1 -2.829-5.507l-2.171.007v10h5z"></path><path d="m12 38v-7.06a8.009 8.009 0 0 1 -3-.9v7.96z"></path><path d="m22 30.531v16.469h2a1 1 0 0 1 1 1 5 5 0 0 0 10 0 1 1 0 0 1 1-1h2v-16.468c-1.182-.89-3.92-3.639-4.88-10.515l-6.24-.017c-.96 6.89-3.698 9.641-4.88 10.531zm5 3.436a13.641 13.641 0 0 1 .694-4.3 2.429 2.429 0 0 1 4.612 0 13.641 13.641 0 0 1 .694 4.3v14.024a3 3 0 1 1 -6 0z"></path><path d="m28 16h4v2h-4z"></path><path d="m33 9.519a.923.923 0 0 0 -.162-.519l-1.069-1.567a1.012 1.012 0 0 0 -.839-.433h-1.86a1.011 1.011 0 0 0 -.839.434l-1.07 1.566a.924.924 0 0 0 -.161.519v4.481h6z"></path></svg>