<?xml version="1.0" encoding="UTF-8"?>
<!DOCTYPE svg PUBLIC "-//W3C//DTD SVG 1.1//EN" "http://www.w3.org/Graphics/SVG/1.1/DTD/svg11.dtd">
<!-- Creator: CorelDRAW -->
<svg xmlns="http://www.w3.org/2000/svg" xml:space="preserve" width="100%" height="100%" version="1.1" shape-rendering="geometricPrecision" text-rendering="geometricPrecision" image-rendering="optimizeQuality" fill-rule="evenodd" clip-rule="evenodd"
viewBox="0 0 1052.33 1299.37"
 xmlns:xlink="http://www.w3.org/1999/xlink"
 xmlns:xodm="http://www.corel.com/coreldraw/odm/2003">
 <defs>
       <linearGradient id="id0" gradientUnits="userSpaceOnUse" x1="527.12" y1="506.3" x2="199.58" y2="506.33">
        <stop offset="0" stop-opacity="1" stop-color="#0D4384"/>
        <stop offset="0.478431" stop-opacity="1" stop-color="#071919"/>
        <stop offset="1" stop-opacity="1" stop-color="#0D4384"/>
       </linearGradient>
 </defs>
 <g id="Слой_x0020_1">
  <metadata id="CorelCorpID_0Corel-Layer"/>
  <g id="_1513569155136">
   <g>
    <g>
     <path fill="black" d="M526.16 703.72c290.6,0 526.17,133.34 526.17,297.83 0,164.48 -235.57,297.82 -526.17,297.82 -290.59,0 -526.16,-133.34 -526.16,-297.82 0,-164.49 235.57,-297.83 526.16,-297.83zm0 62.32c229.8,0 416.08,105.44 416.08,235.51 0,130.06 -186.28,235.5 -416.08,235.5 -229.79,0 -416.07,-105.44 -416.07,-235.5 0,-130.07 186.28,-235.51 416.07,-235.51z"/>
     <g>
      <ellipse fill="black" cx="526.17" cy="991.1" rx="276.04" ry="156.24"/>
     </g>
     <path fill="#FABE0D" d="M526.16 651.84c290.6,0 526.17,133.34 526.17,297.82 0,164.49 -235.57,297.83 -526.17,297.83 -290.59,0 -526.16,-133.34 -526.16,-297.83 0,-164.48 235.57,-297.82 526.16,-297.82zm0 62.32c229.8,0 416.08,105.44 416.08,235.5 0,130.07 -186.28,235.51 -416.08,235.51 -229.79,0 -416.07,-105.44 -416.07,-235.51 0,-130.06 186.28,-235.5 416.07,-235.5z"/>
     <g>
      <ellipse fill="#FABE0D" cx="526.17" cy="949.19" rx="276.04" ry="156.24"/>
     </g>
    </g>
    <g>
     <polygon fill="black" points="156.61,28.5 159.44,641.06 526.16,991.1 878.98,640.74 881.87,28.5 523.76,28.5 514.7,28.5 "/>
     <g>
      <path fill="#FABE0D" fill-rule="nonzero" d="M180.43 622.59l-2.54 -611.42 43.38 -0.04 2.54 611.42 -40.78 5.31 -2.6 -5.27zm2.6 5.27l-2.59 -2.47 -0.01 -2.8 2.6 5.27zm324.04 309.01l-324.04 -309.01 38.18 -10.58 324.04 309.01 0.17 10.42 -38.35 0.16zm38.35 -0.16l-18.88 18.73 -19.47 -18.57 38.35 -0.16zm311.45 -309.01l-311.45 309.01 -38.52 -10.26 311.45 -309.01 40.95 5.15 -2.43 5.11zm2.43 -5.11l-0.01 2.71 -2.42 2.4 2.43 -5.11zm2.55 -611.42l-2.55 611.42 -43.38 -0.04 2.55 -611.42 21.69 -11.13 21.69 11.17zm-21.69 -11.17l21.74 0 -0.05 11.17 -21.69 -11.17zm-316.3 0l316.3 0 0 22.3 -316.3 0 0 0 0 -22.3zm-7.99 0l7.99 0 0 22.3 -7.99 0 0 0 0 -22.3zm-316.29 0l316.29 0 0 22.3 -316.29 0 -21.69 -11.13 21.69 -11.17zm-21.69 11.17l-0.05 -11.17 21.74 0 -21.69 11.17z"/>
      <polygon id="_1" fill="url(#id0)" points="199.58,11.15 202.12,622.57 526.16,931.58 837.61,622.57 840.16,11.15 523.86,11.15 515.87,11.15 "/>
     </g>
    </g>
   </g>
  </g>
 </g>
</svg>
